<svg version="1.1" xmlns="http://www.w3.org/2000/svg" xmlns:xlink="http://www.w3.org/1999/xlink" width="908" height="747"><defs><clipPath id="NtLTxGoylcsR"><path fill="none" stroke="none" d=" M 0 0 L 908 0 L 908 747 L 0 747 L 0 0 Z"/></clipPath></defs><g transform="scale(1,1)" clip-path="url(#NtLTxGoylcsR)"><g><rect fill="rgb(255,255,255)" stroke="none" x="0" y="0" width="908" height="747" fill-opacity="1"/><path fill="none" stroke="rgb(192,192,192)" paint-order="fill stroke markers" d=" M 48.5 0.5 L 48.5 747.5 M 48.5 0.5 L 48.5 747.5 M 158.5 0.5 L 158.5 747.5 M 213.5 0.5 L 213.5 747.5 M 268.5 0.5 L 268.5 747.5 M 323.5 0.5 L 323.5 747.5 M 378.5 0.5 L 378.5 747.5 M 433.5 0.5 L 433.5 747.5 M 488.5 0.5 L 488.5 747.5 M 543.5 0.5 L 543.5 747.5 M 598.5 0.5 L 598.5 747.5 M 653.5 0.5 L 653.5 747.5 M 708.5 0.5 L 708.5 747.5 M 763.5 0.5 L 763.5 747.5 M 818.5 0.5 L 818.5 747.5 M 873.5 0.5 L 873.5 747.5" stroke-opacity="1" stroke-linecap="round" stroke-linejoin="round" stroke-miterlimit="10"/><path fill="none" stroke="rgb(192,192,192)" paint-order="fill stroke markers" d="" stroke-opacity="0.23529411764705882" stroke-linecap="round" stroke-linejoin="round" stroke-miterlimit="10"/><path fill="none" stroke="rgb(192,192,192)" paint-order="fill stroke markers" d=" M 0.5 51.5 L 908.5 51.5 M 0.5 51.5 L 908.5 51.5 M 0.5 106.5 L 908.5 106.5 M 0.5 161.5 L 908.5 161.5 M 0.5 216.5 L 908.5 216.5 M 0.5 271.5 L 908.5 271.5 M 0.5 381.5 L 908.5 381.5 M 0.5 436.5 L 908.5 436.5 M 0.5 491.5 L 908.5 491.5 M 0.5 546.5 L 908.5 546.5 M 0.5 601.5 L 908.5 601.5 M 0.5 656.5 L 908.5 656.5 M 0.5 711.5 L 908.5 711.5" stroke-opacity="1" stroke-linecap="round" stroke-linejoin="round" stroke-miterlimit="10"/><path fill="none" stroke="rgb(192,192,192)" paint-order="fill stroke markers" d="" stroke-opacity="0.23529411764705882" stroke-linecap="round" stroke-linejoin="round" stroke-miterlimit="10"/><path fill="none" stroke="rgb(0,0,0)" paint-order="fill stroke markers" d=" M 103.5 2.5 L 103.5 747.5" stroke-opacity="1" stroke-miterlimit="10"/><path fill="none" stroke="rgb(0,0,0)" paint-order="fill stroke markers" d=" M 103.5 1.5 L 99.5 5.5" stroke-opacity="1" stroke-miterlimit="10"/><path fill="none" stroke="rgb(0,0,0)" paint-order="fill stroke markers" d=" M 103.5 1.5 L 107.5 5.5" stroke-opacity="1" stroke-miterlimit="10"/><path fill="none" stroke="rgb(0,0,0)" paint-order="fill stroke markers" d=" M 0.5 326.5 L 906.5 326.5" stroke-opacity="1" stroke-miterlimit="10"/><path fill="none" stroke="rgb(0,0,0)" paint-order="fill stroke markers" d=" M 907.5 326.5 L 903.5 322.5" stroke-opacity="1" stroke-miterlimit="10"/><path fill="none" stroke="rgb(0,0,0)" paint-order="fill stroke markers" d=" M 907.5 326.5 L 903.5 330.5" stroke-opacity="1" stroke-miterlimit="10"/><text fill="none" stroke="rgb(255,255,255)" font-family="geogebra-sans-serif, sans-serif" font-size="14px" font-style="normal" font-weight="normal" text-decoration="normal" x="42" y="344" text-anchor="start" dominant-baseline="alphabetic" stroke-opacity="1" stroke-linejoin="bevel" stroke-miterlimit="10" stroke-width="3">–1</text><text fill="rgb(0,0,0)" stroke="none" font-family="geogebra-sans-serif, sans-serif" font-size="14px" font-style="normal" font-weight="normal" text-decoration="normal" x="42" y="344" text-anchor="start" dominant-baseline="alphabetic" fill-opacity="1">–1</text><text fill="none" stroke="rgb(255,255,255)" font-family="geogebra-sans-serif, sans-serif" font-size="14px" font-style="normal" font-weight="normal" text-decoration="normal" x="155" y="344" text-anchor="start" dominant-baseline="alphabetic" stroke-opacity="1" stroke-linejoin="bevel" stroke-miterlimit="10" stroke-width="3">1</text><text fill="rgb(0,0,0)" stroke="none" font-family="geogebra-sans-serif, sans-serif" font-size="14px" font-style="normal" font-weight="normal" text-decoration="normal" x="155" y="344" text-anchor="start" dominant-baseline="alphabetic" fill-opacity="1">1</text><text fill="none" stroke="rgb(255,255,255)" font-family="geogebra-sans-serif, sans-serif" font-size="14px" font-style="normal" font-weight="normal" text-decoration="normal" x="210" y="344" text-anchor="start" dominant-baseline="alphabetic" stroke-opacity="1" stroke-linejoin="bevel" stroke-miterlimit="10" stroke-width="3">2</text><text fill="rgb(0,0,0)" stroke="none" font-family="geogebra-sans-serif, sans-serif" font-size="14px" font-style="normal" font-weight="normal" text-decoration="normal" x="210" y="344" text-anchor="start" dominant-baseline="alphabetic" fill-opacity="1">2</text><text fill="none" stroke="rgb(255,255,255)" font-family="geogebra-sans-serif, sans-serif" font-size="14px" font-style="normal" font-weight="normal" text-decoration="normal" x="265" y="344" text-anchor="start" dominant-baseline="alphabetic" stroke-opacity="1" stroke-linejoin="bevel" stroke-miterlimit="10" stroke-width="3">3</text><text fill="rgb(0,0,0)" stroke="none" font-family="geogebra-sans-serif, sans-serif" font-size="14px" font-style="normal" font-weight="normal" text-decoration="normal" x="265" y="344" text-anchor="start" dominant-baseline="alphabetic" fill-opacity="1">3</text><text fill="none" stroke="rgb(255,255,255)" font-family="geogebra-sans-serif, sans-serif" font-size="14px" font-style="normal" font-weight="normal" text-decoration="normal" x="320" y="344" text-anchor="start" dominant-baseline="alphabetic" stroke-opacity="1" stroke-linejoin="bevel" stroke-miterlimit="10" stroke-width="3">4</text><text fill="rgb(0,0,0)" stroke="none" font-family="geogebra-sans-serif, sans-serif" font-size="14px" font-style="normal" font-weight="normal" text-decoration="normal" x="320" y="344" text-anchor="start" dominant-baseline="alphabetic" fill-opacity="1">4</text><text fill="none" stroke="rgb(255,255,255)" font-family="geogebra-sans-serif, sans-serif" font-size="14px" font-style="normal" font-weight="normal" text-decoration="normal" x="375" y="344" text-anchor="start" dominant-baseline="alphabetic" stroke-opacity="1" stroke-linejoin="bevel" stroke-miterlimit="10" stroke-width="3">5</text><text fill="rgb(0,0,0)" stroke="none" font-family="geogebra-sans-serif, sans-serif" font-size="14px" font-style="normal" font-weight="normal" text-decoration="normal" x="375" y="344" text-anchor="start" dominant-baseline="alphabetic" fill-opacity="1">5</text><text fill="none" stroke="rgb(255,255,255)" font-family="geogebra-sans-serif, sans-serif" font-size="14px" font-style="normal" font-weight="normal" text-decoration="normal" x="430" y="344" text-anchor="start" dominant-baseline="alphabetic" stroke-opacity="1" stroke-linejoin="bevel" stroke-miterlimit="10" stroke-width="3">6</text><text fill="rgb(0,0,0)" stroke="none" font-family="geogebra-sans-serif, sans-serif" font-size="14px" font-style="normal" font-weight="normal" text-decoration="normal" x="430" y="344" text-anchor="start" dominant-baseline="alphabetic" fill-opacity="1">6</text><text fill="none" stroke="rgb(255,255,255)" font-family="geogebra-sans-serif, sans-serif" font-size="14px" font-style="normal" font-weight="normal" text-decoration="normal" x="485" y="344" text-anchor="start" dominant-baseline="alphabetic" stroke-opacity="1" stroke-linejoin="bevel" stroke-miterlimit="10" stroke-width="3">7</text><text fill="rgb(0,0,0)" stroke="none" font-family="geogebra-sans-serif, sans-serif" font-size="14px" font-style="normal" font-weight="normal" text-decoration="normal" x="485" y="344" text-anchor="start" dominant-baseline="alphabetic" fill-opacity="1">7</text><text fill="none" stroke="rgb(255,255,255)" font-family="geogebra-sans-serif, sans-serif" font-size="14px" font-style="normal" font-weight="normal" text-decoration="normal" x="540" y="344" text-anchor="start" dominant-baseline="alphabetic" stroke-opacity="1" stroke-linejoin="bevel" stroke-miterlimit="10" stroke-width="3">8</text><text fill="rgb(0,0,0)" stroke="none" font-family="geogebra-sans-serif, sans-serif" font-size="14px" font-style="normal" font-weight="normal" text-decoration="normal" x="540" y="344" text-anchor="start" dominant-baseline="alphabetic" fill-opacity="1">8</text><text fill="none" stroke="rgb(255,255,255)" font-family="geogebra-sans-serif, sans-serif" font-size="14px" font-style="normal" font-weight="normal" text-decoration="normal" x="595" y="344" text-anchor="start" dominant-baseline="alphabetic" stroke-opacity="1" stroke-linejoin="bevel" stroke-miterlimit="10" stroke-width="3">9</text><text fill="rgb(0,0,0)" stroke="none" font-family="geogebra-sans-serif, sans-serif" font-size="14px" font-style="normal" font-weight="normal" text-decoration="normal" x="595" y="344" text-anchor="start" dominant-baseline="alphabetic" fill-opacity="1">9</text><text fill="none" stroke="rgb(255,255,255)" font-family="geogebra-sans-serif, sans-serif" font-size="14px" font-style="normal" font-weight="normal" text-decoration="normal" x="647" y="344" text-anchor="start" dominant-baseline="alphabetic" stroke-opacity="1" stroke-linejoin="bevel" stroke-miterlimit="10" stroke-width="3">10</text><text fill="rgb(0,0,0)" stroke="none" font-family="geogebra-sans-serif, sans-serif" font-size="14px" font-style="normal" font-weight="normal" text-decoration="normal" x="647" y="344" text-anchor="start" dominant-baseline="alphabetic" fill-opacity="1">10</text><text fill="none" stroke="rgb(255,255,255)" font-family="geogebra-sans-serif, sans-serif" font-size="14px" font-style="normal" font-weight="normal" text-decoration="normal" x="702" y="344" text-anchor="start" dominant-baseline="alphabetic" stroke-opacity="1" stroke-linejoin="bevel" stroke-miterlimit="10" stroke-width="3">11</text><text fill="rgb(0,0,0)" stroke="none" font-family="geogebra-sans-serif, sans-serif" font-size="14px" font-style="normal" font-weight="normal" text-decoration="normal" x="702" y="344" text-anchor="start" dominant-baseline="alphabetic" fill-opacity="1">11</text><text fill="none" stroke="rgb(255,255,255)" font-family="geogebra-sans-serif, sans-serif" font-size="14px" font-style="normal" font-weight="normal" text-decoration="normal" x="757" y="344" text-anchor="start" dominant-baseline="alphabetic" stroke-opacity="1" stroke-linejoin="bevel" stroke-miterlimit="10" stroke-width="3">12</text><text fill="rgb(0,0,0)" stroke="none" font-family="geogebra-sans-serif, sans-serif" font-size="14px" font-style="normal" font-weight="normal" text-decoration="normal" x="757" y="344" text-anchor="start" dominant-baseline="alphabetic" fill-opacity="1">12</text><text fill="none" stroke="rgb(255,255,255)" font-family="geogebra-sans-serif, sans-serif" font-size="14px" font-style="normal" font-weight="normal" text-decoration="normal" x="812" y="344" text-anchor="start" dominant-baseline="alphabetic" stroke-opacity="1" stroke-linejoin="bevel" stroke-miterlimit="10" stroke-width="3">13</text><text fill="rgb(0,0,0)" stroke="none" font-family="geogebra-sans-serif, sans-serif" font-size="14px" font-style="normal" font-weight="normal" text-decoration="normal" x="812" y="344" text-anchor="start" dominant-baseline="alphabetic" fill-opacity="1">13</text><text fill="none" stroke="rgb(255,255,255)" font-family="geogebra-sans-serif, sans-serif" font-size="14px" font-style="normal" font-weight="normal" text-decoration="normal" x="867" y="344" text-anchor="start" dominant-baseline="alphabetic" stroke-opacity="1" stroke-linejoin="bevel" stroke-miterlimit="10" stroke-width="3">14</text><text fill="rgb(0,0,0)" stroke="none" font-family="geogebra-sans-serif, sans-serif" font-size="14px" font-style="normal" font-weight="normal" text-decoration="normal" x="867" y="344" text-anchor="start" dominant-baseline="alphabetic" fill-opacity="1">14</text><text fill="none" stroke="rgb(255,255,255)" font-family="geogebra-sans-serif, sans-serif" font-size="14px" font-style="normal" font-weight="normal" text-decoration="normal" x="80" y="717" text-anchor="start" dominant-baseline="alphabetic" stroke-opacity="1" stroke-linejoin="bevel" stroke-miterlimit="10" stroke-width="3">–7</text><text fill="rgb(0,0,0)" stroke="none" font-family="geogebra-sans-serif, sans-serif" font-size="14px" font-style="normal" font-weight="normal" text-decoration="normal" x="80" y="717" text-anchor="start" dominant-baseline="alphabetic" fill-opacity="1">–7</text><text fill="none" stroke="rgb(255,255,255)" font-family="geogebra-sans-serif, sans-serif" font-size="14px" font-style="normal" font-weight="normal" text-decoration="normal" x="80" y="662" text-anchor="start" dominant-baseline="alphabetic" stroke-opacity="1" stroke-linejoin="bevel" stroke-miterlimit="10" stroke-width="3">–6</text><text fill="rgb(0,0,0)" stroke="none" font-family="geogebra-sans-serif, sans-serif" font-size="14px" font-style="normal" font-weight="normal" text-decoration="normal" x="80" y="662" text-anchor="start" dominant-baseline="alphabetic" fill-opacity="1">–6</text><text fill="none" stroke="rgb(255,255,255)" font-family="geogebra-sans-serif, sans-serif" font-size="14px" font-style="normal" font-weight="normal" text-decoration="normal" x="80" y="607" text-anchor="start" dominant-baseline="alphabetic" stroke-opacity="1" stroke-linejoin="bevel" stroke-miterlimit="10" stroke-width="3">–5</text><text fill="rgb(0,0,0)" stroke="none" font-family="geogebra-sans-serif, sans-serif" font-size="14px" font-style="normal" font-weight="normal" text-decoration="normal" x="80" y="607" text-anchor="start" dominant-baseline="alphabetic" fill-opacity="1">–5</text><text fill="none" stroke="rgb(255,255,255)" font-family="geogebra-sans-serif, sans-serif" font-size="14px" font-style="normal" font-weight="normal" text-decoration="normal" x="80" y="552" text-anchor="start" dominant-baseline="alphabetic" stroke-opacity="1" stroke-linejoin="bevel" stroke-miterlimit="10" stroke-width="3">–4</text><text fill="rgb(0,0,0)" stroke="none" font-family="geogebra-sans-serif, sans-serif" font-size="14px" font-style="normal" font-weight="normal" text-decoration="normal" x="80" y="552" text-anchor="start" dominant-baseline="alphabetic" fill-opacity="1">–4</text><text fill="none" stroke="rgb(255,255,255)" font-family="geogebra-sans-serif, sans-serif" font-size="14px" font-style="normal" font-weight="normal" text-decoration="normal" x="80" y="497" text-anchor="start" dominant-baseline="alphabetic" stroke-opacity="1" stroke-linejoin="bevel" stroke-miterlimit="10" stroke-width="3">–3</text><text fill="rgb(0,0,0)" stroke="none" font-family="geogebra-sans-serif, sans-serif" font-size="14px" font-style="normal" font-weight="normal" text-decoration="normal" x="80" y="497" text-anchor="start" dominant-baseline="alphabetic" fill-opacity="1">–3</text><text fill="none" stroke="rgb(255,255,255)" font-family="geogebra-sans-serif, sans-serif" font-size="14px" font-style="normal" font-weight="normal" text-decoration="normal" x="80" y="442" text-anchor="start" dominant-baseline="alphabetic" stroke-opacity="1" stroke-linejoin="bevel" stroke-miterlimit="10" stroke-width="3">–2</text><text fill="rgb(0,0,0)" stroke="none" font-family="geogebra-sans-serif, sans-serif" font-size="14px" font-style="normal" font-weight="normal" text-decoration="normal" x="80" y="442" text-anchor="start" dominant-baseline="alphabetic" fill-opacity="1">–2</text><text fill="none" stroke="rgb(255,255,255)" font-family="geogebra-sans-serif, sans-serif" font-size="14px" font-style="normal" font-weight="normal" text-decoration="normal" x="80" y="387" text-anchor="start" dominant-baseline="alphabetic" stroke-opacity="1" stroke-linejoin="bevel" stroke-miterlimit="10" stroke-width="3">–1</text><text fill="rgb(0,0,0)" stroke="none" font-family="geogebra-sans-serif, sans-serif" font-size="14px" font-style="normal" font-weight="normal" text-decoration="normal" x="80" y="387" text-anchor="start" dominant-baseline="alphabetic" fill-opacity="1">–1</text><text fill="none" stroke="rgb(255,255,255)" font-family="geogebra-sans-serif, sans-serif" font-size="14px" font-style="normal" font-weight="normal" text-decoration="normal" x="87" y="277" text-anchor="start" dominant-baseline="alphabetic" stroke-opacity="1" stroke-linejoin="bevel" stroke-miterlimit="10" stroke-width="3">1</text><text fill="rgb(0,0,0)" stroke="none" font-family="geogebra-sans-serif, sans-serif" font-size="14px" font-style="normal" font-weight="normal" text-decoration="normal" x="87" y="277" text-anchor="start" dominant-baseline="alphabetic" fill-opacity="1">1</text><text fill="none" stroke="rgb(255,255,255)" font-family="geogebra-sans-serif, sans-serif" font-size="14px" font-style="normal" font-weight="normal" text-decoration="normal" x="87" y="222" text-anchor="start" dominant-baseline="alphabetic" stroke-opacity="1" stroke-linejoin="bevel" stroke-miterlimit="10" stroke-width="3">2</text><text fill="rgb(0,0,0)" stroke="none" font-family="geogebra-sans-serif, sans-serif" font-size="14px" font-style="normal" font-weight="normal" text-decoration="normal" x="87" y="222" text-anchor="start" dominant-baseline="alphabetic" fill-opacity="1">2</text><text fill="none" stroke="rgb(255,255,255)" font-family="geogebra-sans-serif, sans-serif" font-size="14px" font-style="normal" font-weight="normal" text-decoration="normal" x="87" y="167" text-anchor="start" dominant-baseline="alphabetic" stroke-opacity="1" stroke-linejoin="bevel" stroke-miterlimit="10" stroke-width="3">3</text><text fill="rgb(0,0,0)" stroke="none" font-family="geogebra-sans-serif, sans-serif" font-size="14px" font-style="normal" font-weight="normal" text-decoration="normal" x="87" y="167" text-anchor="start" dominant-baseline="alphabetic" fill-opacity="1">3</text><text fill="none" stroke="rgb(255,255,255)" font-family="geogebra-sans-serif, sans-serif" font-size="14px" font-style="normal" font-weight="normal" text-decoration="normal" x="87" y="112" text-anchor="start" dominant-baseline="alphabetic" stroke-opacity="1" stroke-linejoin="bevel" stroke-miterlimit="10" stroke-width="3">4</text><text fill="rgb(0,0,0)" stroke="none" font-family="geogebra-sans-serif, sans-serif" font-size="14px" font-style="normal" font-weight="normal" text-decoration="normal" x="87" y="112" text-anchor="start" dominant-baseline="alphabetic" fill-opacity="1">4</text><text fill="none" stroke="rgb(255,255,255)" font-family="geogebra-sans-serif, sans-serif" font-size="14px" font-style="normal" font-weight="normal" text-decoration="normal" x="87" y="57" text-anchor="start" dominant-baseline="alphabetic" stroke-opacity="1" stroke-linejoin="bevel" stroke-miterlimit="10" stroke-width="3">5</text><text fill="rgb(0,0,0)" stroke="none" font-family="geogebra-sans-serif, sans-serif" font-size="14px" font-style="normal" font-weight="normal" text-decoration="normal" x="87" y="57" text-anchor="start" dominant-baseline="alphabetic" fill-opacity="1">5</text><text fill="none" stroke="rgb(255,255,255)" font-family="geogebra-sans-serif, sans-serif" font-size="14px" font-style="normal" font-weight="normal" text-decoration="normal" x="87" y="344" text-anchor="start" dominant-baseline="alphabetic" stroke-opacity="1" stroke-linejoin="bevel" stroke-miterlimit="10" stroke-width="3">0</text><text fill="rgb(0,0,0)" stroke="none" font-family="geogebra-sans-serif, sans-serif" font-size="14px" font-style="normal" font-weight="normal" text-decoration="normal" x="87" y="344" text-anchor="start" dominant-baseline="alphabetic" fill-opacity="1">0</text><path fill="rgb(64,64,65)" stroke="none" paint-order="stroke fill markers" fill-rule="evenodd" d=" M -1 748 L 908.9999999999998 748 L 908.9999999999998 -1 L -1 -1 Z" fill-opacity="1"/><path fill="none" stroke="rgb(51,0,0)" paint-order="fill stroke markers" d=" M 496.29395176523883 70.21478415999303 L 589.2815571981575 694.3279610110835" stroke-opacity="1" stroke-linecap="round" stroke-linejoin="round" stroke-miterlimit="10" stroke-width="4.5"/><path fill="none" stroke="rgb(51,0,0)" paint-order="fill stroke markers" d=" M 496.29395176523883 70.21478415999303 L 246.80035774479248 649.7981680022764" stroke-opacity="1" stroke-linecap="round" stroke-linejoin="round" stroke-miterlimit="10" stroke-width="4.5"/><path fill="none" stroke="rgb(51,0,0)" paint-order="fill stroke markers" d=" M 610.9445088489454 107.45890719870616 L 472.19718469890313 723.0181101390183" stroke-opacity="1" stroke-linecap="round" stroke-linejoin="round" stroke-miterlimit="10" stroke-width="4.5"/><path fill="none" stroke="rgb(51,0,0)" paint-order="fill stroke markers" d=" M 610.9445088489454 107.45890719870616 L 168.92899373701778 557.7768356488707" stroke-opacity="1" stroke-linecap="round" stroke-linejoin="round" stroke-miterlimit="10" stroke-width="4.5"/><path fill="none" stroke="rgb(51,0,0)" paint-order="fill stroke markers" d=" M 704.3988403530534 183.60457591102576 L 352.6551815719811 707.4751236521781" stroke-opacity="1" stroke-linecap="round" stroke-linejoin="round" stroke-miterlimit="10" stroke-width="4.5"/><path fill="none" stroke="rgb(51,0,0)" paint-order="fill stroke markers" d=" M 704.3988403530534 183.60457591102576 L 129.55804875803685 443.839117434097" stroke-opacity="1" stroke-linecap="round" stroke-linejoin="round" stroke-miterlimit="10" stroke-width="4.5"/><path fill="none" stroke="rgb(51,0,0)" paint-order="fill stroke markers" d=" M 764.0354209596119 288.36789579964244 L 246.80035774479248 649.7981680022764" stroke-opacity="1" stroke-linecap="round" stroke-linejoin="round" stroke-miterlimit="10" stroke-width="4.5"/><path fill="none" stroke="rgb(51,0,0)" paint-order="fill stroke markers" d=" M 764.0354209596119 288.36789579964244 L 134.0047870891969 323.37293355355666" stroke-opacity="1" stroke-linecap="round" stroke-linejoin="round" stroke-miterlimit="10" stroke-width="4.5"/><path fill="none" stroke="rgb(51,0,0)" paint-order="fill stroke markers" d=" M 781.8 407.5999999999998 L 168.92899373701778 557.7768356488707" stroke-opacity="1" stroke-linecap="round" stroke-linejoin="round" stroke-miterlimit="10" stroke-width="4.5"/><path fill="none" stroke="rgb(51,0,0)" paint-order="fill stroke markers" d=" M 781.8 407.5999999999998 L 181.66865207864765 212.64790966647567" stroke-opacity="1" stroke-linecap="round" stroke-linejoin="round" stroke-miterlimit="10" stroke-width="4.5"/><path fill="none" stroke="rgb(51,0,0)" paint-order="fill stroke markers" d=" M 755.2933726378844 525.1979321519386 L 129.55804875803685 443.839117434097" stroke-opacity="1" stroke-linecap="round" stroke-linejoin="round" stroke-miterlimit="10" stroke-width="4.5"/><path fill="none" stroke="rgb(51,0,0)" paint-order="fill stroke markers" d=" M 755.2933726378844 525.1979321519386 L 266.11237464497054 126.61807379734836" stroke-opacity="1" stroke-linecap="round" stroke-linejoin="round" stroke-miterlimit="10" stroke-width="4.5"/><path fill="none" stroke="rgb(51,0,0)" paint-order="fill stroke markers" d=" M 688.0954057768097 625.2794398857106 L 134.0047870891969 323.37293355355666" stroke-opacity="1" stroke-linecap="round" stroke-linejoin="round" stroke-miterlimit="10" stroke-width="4.5"/><path fill="none" stroke="rgb(51,0,0)" paint-order="fill stroke markers" d=" M 688.0954057768097 625.2794398857106 L 375.93136213675905 76.90223198807811" stroke-opacity="1" stroke-linecap="round" stroke-linejoin="round" stroke-miterlimit="10" stroke-width="4.5"/><path fill="none" stroke="rgb(51,0,0)" paint-order="fill stroke markers" d=" M 589.2815571981575 694.3279610110835 L 181.66865207864765 212.64790966647567" stroke-opacity="1" stroke-linecap="round" stroke-linejoin="round" stroke-miterlimit="10" stroke-width="4.5"/><path fill="none" stroke="rgb(51,0,0)" paint-order="fill stroke markers" d=" M 472.19718469890313 723.0181101390183 L 266.11237464497054 126.61807379734836" stroke-opacity="1" stroke-linecap="round" stroke-linejoin="round" stroke-miterlimit="10" stroke-width="4.5"/><path fill="none" stroke="rgb(51,0,0)" paint-order="fill stroke markers" d=" M 352.6551815719811 707.4751236521781 L 375.93136213675905 76.90223198807811" stroke-opacity="1" stroke-linecap="round" stroke-linejoin="round" stroke-miterlimit="10" stroke-width="4.5"/><path fill="none" stroke="rgb(64,64,65)" paint-order="fill stroke markers" d=" M -1 748 L 908.9999999999998 748" stroke-opacity="1" stroke-linecap="round" stroke-linejoin="round" stroke-miterlimit="10"/><path fill="none" stroke="rgb(64,64,65)" paint-order="fill stroke markers" d=" M 908.9999999999998 748 L 908.9999999999998 -1" stroke-opacity="1" stroke-linecap="round" stroke-linejoin="round" stroke-miterlimit="10"/><path fill="none" stroke="rgb(64,64,65)" paint-order="fill stroke markers" d=" M 908.9999999999998 -1 L -1 -1" stroke-opacity="1" stroke-linecap="round" stroke-linejoin="round" stroke-miterlimit="10"/><path fill="none" stroke="rgb(64,64,65)" paint-order="fill stroke markers" d=" M -1 -1 L -1 748" stroke-opacity="1" stroke-linecap="round" stroke-linejoin="round" stroke-miterlimit="10"/><path fill="rgb(255,0,0)" stroke="none" paint-order="stroke fill markers" d=" M 787.8 407.5999999999998 C 787.8 410.91370849898453 785.1137084989847 413.5999999999998 781.8 413.5999999999998 C 778.4862915010152 413.5999999999998 775.8 410.91370849898453 775.8 407.5999999999998 C 775.8 404.28629150101506 778.4862915010152 401.5999999999998 781.8 401.5999999999998 C 785.1137084989847 401.5999999999998 787.8 404.28629150101506 787.8 407.5999999999998 Z" fill-opacity="1"/><path fill="none" stroke="rgb(0,0,0)" paint-order="fill stroke markers" d=" M 787.8 407.5999999999998 C 787.8 410.91370849898453 785.1137084989847 413.5999999999998 781.8 413.5999999999998 C 778.4862915010152 413.5999999999998 775.8 410.91370849898453 775.8 407.5999999999998 C 775.8 404.28629150101506 778.4862915010152 401.5999999999998 781.8 401.5999999999998 C 785.1137084989847 401.5999999999998 787.8 404.28629150101506 787.8 407.5999999999998 Z" stroke-opacity="1" stroke-linecap="round" stroke-linejoin="round" stroke-miterlimit="10"/><path fill="rgb(255,0,0)" stroke="none" paint-order="stroke fill markers" d=" M 616.9445088489454 107.45890719870616 C 616.9445088489454 110.77261569769092 614.2582173479301 113.45890719870616 610.9445088489454 113.45890719870616 C 607.6308003499606 113.45890719870616 604.9445088489454 110.77261569769092 604.9445088489454 107.45890719870616 C 604.9445088489454 104.14519869972139 607.6308003499606 101.45890719870616 610.9445088489454 101.45890719870616 C 614.2582173479301 101.45890719870616 616.9445088489454 104.14519869972139 616.9445088489454 107.45890719870616 Z" fill-opacity="1"/><path fill="none" stroke="rgb(0,0,0)" paint-order="fill stroke markers" d=" M 616.9445088489454 107.45890719870616 C 616.9445088489454 110.77261569769092 614.2582173479301 113.45890719870616 610.9445088489454 113.45890719870616 C 607.6308003499606 113.45890719870616 604.9445088489454 110.77261569769092 604.9445088489454 107.45890719870616 C 604.9445088489454 104.14519869972139 607.6308003499606 101.45890719870616 610.9445088489454 101.45890719870616 C 614.2582173479301 101.45890719870616 616.9445088489454 104.14519869972139 616.9445088489454 107.45890719870616 Z" stroke-opacity="1" stroke-linecap="round" stroke-linejoin="round" stroke-miterlimit="10"/><path fill="rgb(255,0,0)" stroke="none" paint-order="stroke fill markers" d=" M 272.11237464497054 126.61807379734836 C 272.11237464497054 129.93178229633313 269.4260831439553 132.61807379734836 266.11237464497054 132.61807379734836 C 262.7986661459858 132.61807379734836 260.11237464497054 129.93178229633313 260.11237464497054 126.61807379734836 C 260.11237464497054 123.30436529836359 262.7986661459858 120.61807379734836 266.11237464497054 120.61807379734836 C 269.4260831439553 120.61807379734836 272.11237464497054 123.30436529836359 272.11237464497054 126.61807379734836 Z" fill-opacity="1"/><path fill="none" stroke="rgb(0,0,0)" paint-order="fill stroke markers" d=" M 272.11237464497054 126.61807379734836 C 272.11237464497054 129.93178229633313 269.4260831439553 132.61807379734836 266.11237464497054 132.61807379734836 C 262.7986661459858 132.61807379734836 260.11237464497054 129.93178229633313 260.11237464497054 126.61807379734836 C 260.11237464497054 123.30436529836359 262.7986661459858 120.61807379734836 266.11237464497054 120.61807379734836 C 269.4260831439553 120.61807379734836 272.11237464497054 123.30436529836359 272.11237464497054 126.61807379734836 Z" stroke-opacity="1" stroke-linecap="round" stroke-linejoin="round" stroke-miterlimit="10"/><path fill="rgb(255,0,0)" stroke="none" paint-order="stroke fill markers" d=" M 135.55804875803685 443.839117434097 C 135.55804875803685 447.1528259330817 132.8717572570216 449.839117434097 129.55804875803685 449.839117434097 C 126.24434025905208 449.839117434097 123.55804875803685 447.1528259330817 123.55804875803685 443.839117434097 C 123.55804875803685 440.52540893511224 126.24434025905208 437.839117434097 129.55804875803685 437.839117434097 C 132.8717572570216 437.839117434097 135.55804875803685 440.52540893511224 135.55804875803685 443.839117434097 Z" fill-opacity="1"/><path fill="none" stroke="rgb(0,0,0)" paint-order="fill stroke markers" d=" M 135.55804875803685 443.839117434097 C 135.55804875803685 447.1528259330817 132.8717572570216 449.839117434097 129.55804875803685 449.839117434097 C 126.24434025905208 449.839117434097 123.55804875803685 447.1528259330817 123.55804875803685 443.839117434097 C 123.55804875803685 440.52540893511224 126.24434025905208 437.839117434097 129.55804875803685 437.839117434097 C 132.8717572570216 437.839117434097 135.55804875803685 440.52540893511224 135.55804875803685 443.839117434097 Z" stroke-opacity="1" stroke-linecap="round" stroke-linejoin="round" stroke-miterlimit="10"/><path fill="rgb(255,0,0)" stroke="none" paint-order="stroke fill markers" d=" M 358.6551815719811 707.4751236521781 C 358.6551815719811 710.7888321511629 355.9688900709658 713.4751236521781 352.6551815719811 713.4751236521781 C 349.34147307299634 713.4751236521781 346.6551815719811 710.7888321511629 346.6551815719811 707.4751236521781 C 346.6551815719811 704.1614151531934 349.34147307299634 701.4751236521781 352.6551815719811 701.4751236521781 C 355.9688900709658 701.4751236521781 358.6551815719811 704.1614151531934 358.6551815719811 707.4751236521781 Z" fill-opacity="1"/><path fill="none" stroke="rgb(0,0,0)" paint-order="fill stroke markers" d=" M 358.6551815719811 707.4751236521781 C 358.6551815719811 710.7888321511629 355.9688900709658 713.4751236521781 352.6551815719811 713.4751236521781 C 349.34147307299634 713.4751236521781 346.6551815719811 710.7888321511629 346.6551815719811 707.4751236521781 C 346.6551815719811 704.1614151531934 349.34147307299634 701.4751236521781 352.6551815719811 701.4751236521781 C 355.9688900709658 701.4751236521781 358.6551815719811 704.1614151531934 358.6551815719811 707.4751236521781 Z" stroke-opacity="1" stroke-linecap="round" stroke-linejoin="round" stroke-miterlimit="10"/><path fill="rgb(255,0,0)" stroke="none" paint-order="stroke fill markers" d=" M 694.0954057768097 625.2794398857106 C 694.0954057768097 628.5931483846954 691.4091142757944 631.2794398857106 688.0954057768097 631.2794398857106 C 684.781697277825 631.2794398857106 682.0954057768097 628.5931483846954 682.0954057768097 625.2794398857106 C 682.0954057768097 621.9657313867259 684.781697277825 619.2794398857106 688.0954057768097 619.2794398857106 C 691.4091142757944 619.2794398857106 694.0954057768097 621.9657313867259 694.0954057768097 625.2794398857106 Z" fill-opacity="1"/><path fill="none" stroke="rgb(0,0,0)" paint-order="fill stroke markers" d=" M 694.0954057768097 625.2794398857106 C 694.0954057768097 628.5931483846954 691.4091142757944 631.2794398857106 688.0954057768097 631.2794398857106 C 684.781697277825 631.2794398857106 682.0954057768097 628.5931483846954 682.0954057768097 625.2794398857106 C 682.0954057768097 621.9657313867259 684.781697277825 619.2794398857106 688.0954057768097 619.2794398857106 C 691.4091142757944 619.2794398857106 694.0954057768097 621.9657313867259 694.0954057768097 625.2794398857106 Z" stroke-opacity="1" stroke-linecap="round" stroke-linejoin="round" stroke-miterlimit="10"/><path fill="rgb(255,0,0)" stroke="none" paint-order="stroke fill markers" d=" M 770.0354209596119 288.36789579964244 C 770.0354209596119 291.6816042986272 767.3491294585966 294.36789579964244 764.0354209596119 294.36789579964244 C 760.7217124606271 294.36789579964244 758.0354209596119 291.6816042986272 758.0354209596119 288.36789579964244 C 758.0354209596119 285.0541873006577 760.7217124606271 282.36789579964244 764.0354209596119 282.36789579964244 C 767.3491294585966 282.36789579964244 770.0354209596119 285.0541873006577 770.0354209596119 288.36789579964244 Z" fill-opacity="1"/><path fill="none" stroke="rgb(0,0,0)" paint-order="fill stroke markers" d=" M 770.0354209596119 288.36789579964244 C 770.0354209596119 291.6816042986272 767.3491294585966 294.36789579964244 764.0354209596119 294.36789579964244 C 760.7217124606271 294.36789579964244 758.0354209596119 291.6816042986272 758.0354209596119 288.36789579964244 C 758.0354209596119 285.0541873006577 760.7217124606271 282.36789579964244 764.0354209596119 282.36789579964244 C 767.3491294585966 282.36789579964244 770.0354209596119 285.0541873006577 770.0354209596119 288.36789579964244 Z" stroke-opacity="1" stroke-linecap="round" stroke-linejoin="round" stroke-miterlimit="10"/><path fill="rgb(255,0,0)" stroke="none" paint-order="stroke fill markers" d=" M 502.29395176523883 70.21478415999303 C 502.29395176523883 73.5284926589778 499.60766026422357 76.21478415999303 496.29395176523883 76.21478415999303 C 492.9802432662541 76.21478415999303 490.29395176523883 73.5284926589778 490.29395176523883 70.21478415999303 C 490.29395176523883 66.90107566100826 492.9802432662541 64.21478415999303 496.29395176523883 64.21478415999303 C 499.60766026422357 64.21478415999303 502.29395176523883 66.90107566100826 502.29395176523883 70.21478415999303 Z" fill-opacity="1"/><path fill="none" stroke="rgb(0,0,0)" paint-order="fill stroke markers" d=" M 502.29395176523883 70.21478415999303 C 502.29395176523883 73.5284926589778 499.60766026422357 76.21478415999303 496.29395176523883 76.21478415999303 C 492.9802432662541 76.21478415999303 490.29395176523883 73.5284926589778 490.29395176523883 70.21478415999303 C 490.29395176523883 66.90107566100826 492.9802432662541 64.21478415999303 496.29395176523883 64.21478415999303 C 499.60766026422357 64.21478415999303 502.29395176523883 66.90107566100826 502.29395176523883 70.21478415999303 Z" stroke-opacity="1" stroke-linecap="round" stroke-linejoin="round" stroke-miterlimit="10"/><path fill="rgb(255,0,0)" stroke="none" paint-order="stroke fill markers" d=" M 187.66865207864765 212.64790966647567 C 187.66865207864765 215.96161816546044 184.98236057763242 218.64790966647567 181.66865207864765 218.64790966647567 C 178.3549435796629 218.64790966647567 175.66865207864765 215.96161816546044 175.66865207864765 212.64790966647567 C 175.66865207864765 209.3342011674909 178.3549435796629 206.64790966647567 181.66865207864765 206.64790966647567 C 184.98236057763242 206.64790966647567 187.66865207864765 209.3342011674909 187.66865207864765 212.64790966647567 Z" fill-opacity="1"/><path fill="none" stroke="rgb(0,0,0)" paint-order="fill stroke markers" d=" M 187.66865207864765 212.64790966647567 C 187.66865207864765 215.96161816546044 184.98236057763242 218.64790966647567 181.66865207864765 218.64790966647567 C 178.3549435796629 218.64790966647567 175.66865207864765 215.96161816546044 175.66865207864765 212.64790966647567 C 175.66865207864765 209.3342011674909 178.3549435796629 206.64790966647567 181.66865207864765 206.64790966647567 C 184.98236057763242 206.64790966647567 187.66865207864765 209.3342011674909 187.66865207864765 212.64790966647567 Z" stroke-opacity="1" stroke-linecap="round" stroke-linejoin="round" stroke-miterlimit="10"/><path fill="rgb(255,0,0)" stroke="none" paint-order="stroke fill markers" d=" M 174.92899373701778 557.7768356488707 C 174.92899373701778 561.0905441478554 172.24270223600254 563.7768356488707 168.92899373701778 563.7768356488707 C 165.615285238033 563.7768356488707 162.92899373701778 561.0905441478554 162.92899373701778 557.7768356488707 C 162.92899373701778 554.463127149886 165.615285238033 551.7768356488707 168.92899373701778 551.7768356488707 C 172.24270223600254 551.7768356488707 174.92899373701778 554.463127149886 174.92899373701778 557.7768356488707 Z" fill-opacity="1"/><path fill="none" stroke="rgb(0,0,0)" paint-order="fill stroke markers" d=" M 174.92899373701778 557.7768356488707 C 174.92899373701778 561.0905441478554 172.24270223600254 563.7768356488707 168.92899373701778 563.7768356488707 C 165.615285238033 563.7768356488707 162.92899373701778 561.0905441478554 162.92899373701778 557.7768356488707 C 162.92899373701778 554.463127149886 165.615285238033 551.7768356488707 168.92899373701778 551.7768356488707 C 172.24270223600254 551.7768356488707 174.92899373701778 554.463127149886 174.92899373701778 557.7768356488707 Z" stroke-opacity="1" stroke-linecap="round" stroke-linejoin="round" stroke-miterlimit="10"/><path fill="rgb(255,0,0)" stroke="none" paint-order="stroke fill markers" d=" M 478.19718469890313 723.0181101390183 C 478.19718469890313 726.331818638003 475.51089319788787 729.0181101390183 472.19718469890313 729.0181101390183 C 468.8834761999184 729.0181101390183 466.19718469890313 726.331818638003 466.19718469890313 723.0181101390183 C 466.19718469890313 719.7044016400336 468.8834761999184 717.0181101390183 472.19718469890313 717.0181101390183 C 475.51089319788787 717.0181101390183 478.19718469890313 719.7044016400336 478.19718469890313 723.0181101390183 Z" fill-opacity="1"/><path fill="none" stroke="rgb(0,0,0)" paint-order="fill stroke markers" d=" M 478.19718469890313 723.0181101390183 C 478.19718469890313 726.331818638003 475.51089319788787 729.0181101390183 472.19718469890313 729.0181101390183 C 468.8834761999184 729.0181101390183 466.19718469890313 726.331818638003 466.19718469890313 723.0181101390183 C 466.19718469890313 719.7044016400336 468.8834761999184 717.0181101390183 472.19718469890313 717.0181101390183 C 475.51089319788787 717.0181101390183 478.19718469890313 719.7044016400336 478.19718469890313 723.0181101390183 Z" stroke-opacity="1" stroke-linecap="round" stroke-linejoin="round" stroke-miterlimit="10"/><path fill="rgb(255,0,0)" stroke="none" paint-order="stroke fill markers" d=" M 761.2933726378844 525.1979321519386 C 761.2933726378844 528.5116406509234 758.6070811368692 531.1979321519386 755.2933726378844 531.1979321519386 C 751.9796641388997 531.1979321519386 749.2933726378844 528.5116406509234 749.2933726378844 525.1979321519386 C 749.2933726378844 521.8842236529539 751.9796641388997 519.1979321519386 755.2933726378844 519.1979321519386 C 758.6070811368692 519.1979321519386 761.2933726378844 521.8842236529539 761.2933726378844 525.1979321519386 Z" fill-opacity="1"/><path fill="none" stroke="rgb(0,0,0)" paint-order="fill stroke markers" d=" M 761.2933726378844 525.1979321519386 C 761.2933726378844 528.5116406509234 758.6070811368692 531.1979321519386 755.2933726378844 531.1979321519386 C 751.9796641388997 531.1979321519386 749.2933726378844 528.5116406509234 749.2933726378844 525.1979321519386 C 749.2933726378844 521.8842236529539 751.9796641388997 519.1979321519386 755.2933726378844 519.1979321519386 C 758.6070811368692 519.1979321519386 761.2933726378844 521.8842236529539 761.2933726378844 525.1979321519386 Z" stroke-opacity="1" stroke-linecap="round" stroke-linejoin="round" stroke-miterlimit="10"/><path fill="rgb(255,0,0)" stroke="none" paint-order="stroke fill markers" d=" M 710.3988403530534 183.60457591102576 C 710.3988403530534 186.91828441001053 707.7125488520381 189.60457591102576 704.3988403530534 189.60457591102576 C 701.0851318540687 189.60457591102576 698.3988403530534 186.91828441001053 698.3988403530534 183.60457591102576 C 698.3988403530534 180.290867412041 701.0851318540687 177.60457591102576 704.3988403530534 177.60457591102576 C 707.7125488520381 177.60457591102576 710.3988403530534 180.290867412041 710.3988403530534 183.60457591102576 Z" fill-opacity="1"/><path fill="none" stroke="rgb(0,0,0)" paint-order="fill stroke markers" d=" M 710.3988403530534 183.60457591102576 C 710.3988403530534 186.91828441001053 707.7125488520381 189.60457591102576 704.3988403530534 189.60457591102576 C 701.0851318540687 189.60457591102576 698.3988403530534 186.91828441001053 698.3988403530534 183.60457591102576 C 698.3988403530534 180.290867412041 701.0851318540687 177.60457591102576 704.3988403530534 177.60457591102576 C 707.7125488520381 177.60457591102576 710.3988403530534 180.290867412041 710.3988403530534 183.60457591102576 Z" stroke-opacity="1" stroke-linecap="round" stroke-linejoin="round" stroke-miterlimit="10"/><path fill="rgb(255,0,0)" stroke="none" paint-order="stroke fill markers" d=" M 381.93136213675905 76.90223198807811 C 381.93136213675905 80.21594048706288 379.2450706357438 82.90223198807811 375.93136213675905 82.90223198807811 C 372.6176536377743 82.90223198807811 369.93136213675905 80.21594048706288 369.93136213675905 76.90223198807811 C 369.93136213675905 73.58852348909335 372.6176536377743 70.90223198807811 375.93136213675905 70.90223198807811 C 379.2450706357438 70.90223198807811 381.93136213675905 73.58852348909335 381.93136213675905 76.90223198807811 Z" fill-opacity="1"/><path fill="none" stroke="rgb(0,0,0)" paint-order="fill stroke markers" d=" M 381.93136213675905 76.90223198807811 C 381.93136213675905 80.21594048706288 379.2450706357438 82.90223198807811 375.93136213675905 82.90223198807811 C 372.6176536377743 82.90223198807811 369.93136213675905 80.21594048706288 369.93136213675905 76.90223198807811 C 369.93136213675905 73.58852348909335 372.6176536377743 70.90223198807811 375.93136213675905 70.90223198807811 C 379.2450706357438 70.90223198807811 381.93136213675905 73.58852348909335 381.93136213675905 76.90223198807811 Z" stroke-opacity="1" stroke-linecap="round" stroke-linejoin="round" stroke-miterlimit="10"/><path fill="rgb(255,0,0)" stroke="none" paint-order="stroke fill markers" d=" M 140.0047870891969 323.37293355355666 C 140.0047870891969 326.6866420525414 137.31849558818166 329.37293355355666 134.0047870891969 329.37293355355666 C 130.69107859021213 329.37293355355666 128.0047870891969 326.6866420525414 128.0047870891969 323.37293355355666 C 128.0047870891969 320.0592250545719 130.69107859021213 317.37293355355666 134.0047870891969 317.37293355355666 C 137.31849558818166 317.37293355355666 140.0047870891969 320.0592250545719 140.0047870891969 323.37293355355666 Z" fill-opacity="1"/><path fill="none" stroke="rgb(0,0,0)" paint-order="fill stroke markers" d=" M 140.0047870891969 323.37293355355666 C 140.0047870891969 326.6866420525414 137.31849558818166 329.37293355355666 134.0047870891969 329.37293355355666 C 130.69107859021213 329.37293355355666 128.0047870891969 326.6866420525414 128.0047870891969 323.37293355355666 C 128.0047870891969 320.0592250545719 130.69107859021213 317.37293355355666 134.0047870891969 317.37293355355666 C 137.31849558818166 317.37293355355666 140.0047870891969 320.0592250545719 140.0047870891969 323.37293355355666 Z" stroke-opacity="1" stroke-linecap="round" stroke-linejoin="round" stroke-miterlimit="10"/><path fill="rgb(255,0,0)" stroke="none" paint-order="stroke fill markers" d=" M 252.80035774479248 649.7981680022764 C 252.80035774479248 653.1118765012611 250.11406624377724 655.7981680022764 246.80035774479248 655.7981680022764 C 243.4866492458077 655.7981680022764 240.80035774479248 653.1118765012611 240.80035774479248 649.7981680022764 C 240.80035774479248 646.4844595032916 243.4866492458077 643.7981680022764 246.80035774479248 643.7981680022764 C 250.11406624377724 643.7981680022764 252.80035774479248 646.4844595032916 252.80035774479248 649.7981680022764 Z" fill-opacity="1"/><path fill="none" stroke="rgb(0,0,0)" paint-order="fill stroke markers" d=" M 252.80035774479248 649.7981680022764 C 252.80035774479248 653.1118765012611 250.11406624377724 655.7981680022764 246.80035774479248 655.7981680022764 C 243.4866492458077 655.7981680022764 240.80035774479248 653.1118765012611 240.80035774479248 649.7981680022764 C 240.80035774479248 646.4844595032916 243.4866492458077 643.7981680022764 246.80035774479248 643.7981680022764 C 250.11406624377724 643.7981680022764 252.80035774479248 646.4844595032916 252.80035774479248 649.7981680022764 Z" stroke-opacity="1" stroke-linecap="round" stroke-linejoin="round" stroke-miterlimit="10"/><path fill="rgb(255,0,0)" stroke="none" paint-order="stroke fill markers" d=" M 595.2815571981575 694.3279610110835 C 595.2815571981575 697.6416695100683 592.5952656971423 700.3279610110835 589.2815571981575 700.3279610110835 C 585.9678486991728 700.3279610110835 583.2815571981575 697.6416695100683 583.2815571981575 694.3279610110835 C 583.2815571981575 691.0142525120988 585.9678486991728 688.3279610110835 589.2815571981575 688.3279610110835 C 592.5952656971423 688.3279610110835 595.2815571981575 691.0142525120988 595.2815571981575 694.3279610110835 Z" fill-opacity="1"/><path fill="none" stroke="rgb(0,0,0)" paint-order="fill stroke markers" d=" M 595.2815571981575 694.3279610110835 C 595.2815571981575 697.6416695100683 592.5952656971423 700.3279610110835 589.2815571981575 700.3279610110835 C 585.9678486991728 700.3279610110835 583.2815571981575 697.6416695100683 583.2815571981575 694.3279610110835 C 583.2815571981575 691.0142525120988 585.9678486991728 688.3279610110835 589.2815571981575 688.3279610110835 C 592.5952656971423 688.3279610110835 595.2815571981575 691.0142525120988 595.2815571981575 694.3279610110835 Z" stroke-opacity="1" stroke-linecap="round" stroke-linejoin="round" stroke-miterlimit="10"/></g></g></svg>