<svg version="1.1" xmlns="http://www.w3.org/2000/svg" xmlns:xlink="http://www.w3.org/1999/xlink" width="908" height="795"><defs><clipPath id="rnmKwZBZTPmM"><path fill="none" stroke="none" d=" M 0 0 L 908 0 L 908 795 L 0 795 L 0 0 Z"/></clipPath></defs><g transform="scale(1,1)" clip-path="url(#rnmKwZBZTPmM)"><g><rect fill="rgb(255,255,255)" stroke="none" x="0" y="0" width="908" height="795" fill-opacity="1"/><path fill="none" stroke="rgb(51,0,0)" paint-order="fill stroke markers" d=" M 519.3682592936018 87.70952325539301 L 597.8684497319719 614.5862291326114" stroke-opacity="1" stroke-linecap="round" stroke-linejoin="round" stroke-miterlimit="10" stroke-width="3.5"/><path fill="none" stroke="rgb(51,0,0)" paint-order="fill stroke markers" d=" M 519.3682592936018 87.70952325539301 L 308.7456225177009 576.9941520477327" stroke-opacity="1" stroke-linecap="round" stroke-linejoin="round" stroke-miterlimit="10" stroke-width="3.5"/><path fill="none" stroke="rgb(51,0,0)" paint-order="fill stroke markers" d=" M 616.1563260798666 119.15103352590108 L 499.0257545603124 638.8064696664193" stroke-opacity="1" stroke-linecap="round" stroke-linejoin="round" stroke-miterlimit="10" stroke-width="3.5"/><path fill="none" stroke="rgb(51,0,0)" paint-order="fill stroke markers" d=" M 616.1563260798666 119.15103352590108 L 243.0065718577094 499.3096899035164" stroke-opacity="1" stroke-linecap="round" stroke-linejoin="round" stroke-miterlimit="10" stroke-width="3.5"/><path fill="none" stroke="rgb(51,0,0)" paint-order="fill stroke markers" d=" M 695.0505269382312 183.43325121658307 L 398.10832618737425 625.6850714594489" stroke-opacity="1" stroke-linecap="round" stroke-linejoin="round" stroke-miterlimit="10" stroke-width="3.5"/><path fill="none" stroke="rgb(51,0,0)" paint-order="fill stroke markers" d=" M 695.0505269382312 183.43325121658307 L 209.7695972716913 403.1234021038442" stroke-opacity="1" stroke-linecap="round" stroke-linejoin="round" stroke-miterlimit="10" stroke-width="3.5"/><path fill="none" stroke="rgb(51,0,0)" paint-order="fill stroke markers" d=" M 745.3957628749205 271.8745066282524 L 308.7456225177009 576.9941520477327" stroke-opacity="1" stroke-linecap="round" stroke-linejoin="round" stroke-miterlimit="10" stroke-width="3.5"/><path fill="none" stroke="rgb(51,0,0)" paint-order="fill stroke markers" d=" M 745.3957628749205 271.8745066282524 L 213.5235363499213 301.4257798026857" stroke-opacity="1" stroke-linecap="round" stroke-linejoin="round" stroke-miterlimit="10" stroke-width="3.5"/><path fill="none" stroke="rgb(51,0,0)" paint-order="fill stroke markers" d=" M 760.3926308040978 372.5303181476463 L 243.0065718577094 499.3096899035164" stroke-opacity="1" stroke-linecap="round" stroke-linejoin="round" stroke-miterlimit="10" stroke-width="3.5"/><path fill="none" stroke="rgb(51,0,0)" paint-order="fill stroke markers" d=" M 760.3926308040978 372.5303181476463 L 253.76139881859035 207.95165041778293" stroke-opacity="1" stroke-linecap="round" stroke-linejoin="round" stroke-miterlimit="10" stroke-width="3.5"/><path fill="none" stroke="rgb(51,0,0)" paint-order="fill stroke markers" d=" M 738.0157206114156 471.8065606759616 L 209.7695972716913 403.1234021038442" stroke-opacity="1" stroke-linecap="round" stroke-linejoin="round" stroke-miterlimit="10" stroke-width="3.5"/><path fill="none" stroke="rgb(51,0,0)" paint-order="fill stroke markers" d=" M 738.0157206114156 471.8065606759616 L 325.0488383856118 135.32521308060373" stroke-opacity="1" stroke-linecap="round" stroke-linejoin="round" stroke-miterlimit="10" stroke-width="3.5"/><path fill="none" stroke="rgb(51,0,0)" paint-order="fill stroke markers" d=" M 681.287158013134 556.2954275511058 L 213.5235363499213 301.4257798026857" stroke-opacity="1" stroke-linecap="round" stroke-linejoin="round" stroke-miterlimit="10" stroke-width="3.5"/><path fill="none" stroke="rgb(51,0,0)" paint-order="fill stroke markers" d=" M 681.287158013134 556.2954275511058 L 417.7580913201165 93.35507059051665" stroke-opacity="1" stroke-linecap="round" stroke-linejoin="round" stroke-miterlimit="10" stroke-width="3.5"/><path fill="none" stroke="rgb(51,0,0)" paint-order="fill stroke markers" d=" M 597.8684497319719 614.5862291326114 L 253.76139881859035 207.95165041778293" stroke-opacity="1" stroke-linecap="round" stroke-linejoin="round" stroke-miterlimit="10" stroke-width="3.5"/><path fill="none" stroke="rgb(51,0,0)" paint-order="fill stroke markers" d=" M 499.0257545603124 638.8064696664193 L 325.0488383856118 135.32521308060373" stroke-opacity="1" stroke-linecap="round" stroke-linejoin="round" stroke-miterlimit="10" stroke-width="3.5"/><path fill="none" stroke="rgb(51,0,0)" paint-order="fill stroke markers" d=" M 398.10832618737425 625.6850714594489 L 417.7580913201165 93.35507059051665" stroke-opacity="1" stroke-linecap="round" stroke-linejoin="round" stroke-miterlimit="10" stroke-width="3.5"/><path fill="rgb(255,0,0)" stroke="none" paint-order="stroke fill markers" d=" M 766.3926308040978 372.5303181476463 C 766.3926308040978 375.84402664663105 763.7063393030826 378.5303181476463 760.3926308040978 378.5303181476463 C 757.0789223051131 378.5303181476463 754.3926308040978 375.84402664663105 754.3926308040978 372.5303181476463 C 754.3926308040978 369.2166096486616 757.0789223051131 366.5303181476463 760.3926308040978 366.5303181476463 C 763.7063393030826 366.5303181476463 766.3926308040978 369.2166096486616 766.3926308040978 372.5303181476463 Z" fill-opacity="1"/><path fill="none" stroke="rgb(0,0,0)" paint-order="fill stroke markers" d=" M 766.3926308040978 372.5303181476463 C 766.3926308040978 375.84402664663105 763.7063393030826 378.5303181476463 760.3926308040978 378.5303181476463 C 757.0789223051131 378.5303181476463 754.3926308040978 375.84402664663105 754.3926308040978 372.5303181476463 C 754.3926308040978 369.2166096486616 757.0789223051131 366.5303181476463 760.3926308040978 366.5303181476463 C 763.7063393030826 366.5303181476463 766.3926308040978 369.2166096486616 766.3926308040978 372.5303181476463 Z" stroke-opacity="1" stroke-linecap="round" stroke-linejoin="round" stroke-miterlimit="10"/><path fill="rgb(255,0,0)" stroke="none" paint-order="stroke fill markers" d=" M 622.1563260798666 119.15103352590108 C 622.1563260798666 122.46474202488585 619.4700345788514 125.15103352590108 616.1563260798666 125.15103352590108 C 612.8426175808819 125.15103352590108 610.1563260798666 122.46474202488585 610.1563260798666 119.15103352590108 C 610.1563260798666 115.83732502691632 612.8426175808819 113.15103352590108 616.1563260798666 113.15103352590108 C 619.4700345788514 113.15103352590108 622.1563260798666 115.83732502691632 622.1563260798666 119.15103352590108 Z" fill-opacity="1"/><path fill="none" stroke="rgb(0,0,0)" paint-order="fill stroke markers" d=" M 622.1563260798666 119.15103352590108 C 622.1563260798666 122.46474202488585 619.4700345788514 125.15103352590108 616.1563260798666 125.15103352590108 C 612.8426175808819 125.15103352590108 610.1563260798666 122.46474202488585 610.1563260798666 119.15103352590108 C 610.1563260798666 115.83732502691632 612.8426175808819 113.15103352590108 616.1563260798666 113.15103352590108 C 619.4700345788514 113.15103352590108 622.1563260798666 115.83732502691632 622.1563260798666 119.15103352590108 Z" stroke-opacity="1" stroke-linecap="round" stroke-linejoin="round" stroke-miterlimit="10"/><path fill="rgb(255,0,0)" stroke="none" paint-order="stroke fill markers" d=" M 331.0488383856118 135.32521308060373 C 331.0488383856118 138.6389215795885 328.36254688459655 141.32521308060373 325.0488383856118 141.32521308060373 C 321.7351298866271 141.32521308060373 319.0488383856118 138.6389215795885 319.0488383856118 135.32521308060373 C 319.0488383856118 132.01150458161896 321.7351298866271 129.32521308060373 325.0488383856118 129.32521308060373 C 328.36254688459655 129.32521308060373 331.0488383856118 132.01150458161896 331.0488383856118 135.32521308060373 Z" fill-opacity="1"/><path fill="none" stroke="rgb(0,0,0)" paint-order="fill stroke markers" d=" M 331.0488383856118 135.32521308060373 C 331.0488383856118 138.6389215795885 328.36254688459655 141.32521308060373 325.0488383856118 141.32521308060373 C 321.7351298866271 141.32521308060373 319.0488383856118 138.6389215795885 319.0488383856118 135.32521308060373 C 319.0488383856118 132.01150458161896 321.7351298866271 129.32521308060373 325.0488383856118 129.32521308060373 C 328.36254688459655 129.32521308060373 331.0488383856118 132.01150458161896 331.0488383856118 135.32521308060373 Z" stroke-opacity="1" stroke-linecap="round" stroke-linejoin="round" stroke-miterlimit="10"/><path fill="rgb(255,0,0)" stroke="none" paint-order="stroke fill markers" d=" M 215.7695972716913 403.1234021038442 C 215.7695972716913 406.43711060282897 213.08330577067608 409.1234021038442 209.7695972716913 409.1234021038442 C 206.45588877270654 409.1234021038442 203.7695972716913 406.43711060282897 203.7695972716913 403.1234021038442 C 203.7695972716913 399.8096936048595 206.45588877270654 397.1234021038442 209.7695972716913 397.1234021038442 C 213.08330577067608 397.1234021038442 215.7695972716913 399.8096936048595 215.7695972716913 403.1234021038442 Z" fill-opacity="1"/><path fill="none" stroke="rgb(0,0,0)" paint-order="fill stroke markers" d=" M 215.7695972716913 403.1234021038442 C 215.7695972716913 406.43711060282897 213.08330577067608 409.1234021038442 209.7695972716913 409.1234021038442 C 206.45588877270654 409.1234021038442 203.7695972716913 406.43711060282897 203.7695972716913 403.1234021038442 C 203.7695972716913 399.8096936048595 206.45588877270654 397.1234021038442 209.7695972716913 397.1234021038442 C 213.08330577067608 397.1234021038442 215.7695972716913 399.8096936048595 215.7695972716913 403.1234021038442 Z" stroke-opacity="1" stroke-linecap="round" stroke-linejoin="round" stroke-miterlimit="10"/><path fill="rgb(255,0,0)" stroke="none" paint-order="stroke fill markers" d=" M 404.10832618737425 625.6850714594489 C 404.10832618737425 628.9987799584336 401.422034686359 631.6850714594489 398.10832618737425 631.6850714594489 C 394.7946176883895 631.6850714594489 392.10832618737425 628.9987799584336 392.10832618737425 625.6850714594489 C 392.10832618737425 622.3713629604641 394.7946176883895 619.6850714594489 398.10832618737425 619.6850714594489 C 401.422034686359 619.6850714594489 404.10832618737425 622.3713629604641 404.10832618737425 625.6850714594489 Z" fill-opacity="1"/><path fill="none" stroke="rgb(0,0,0)" paint-order="fill stroke markers" d=" M 404.10832618737425 625.6850714594489 C 404.10832618737425 628.9987799584336 401.422034686359 631.6850714594489 398.10832618737425 631.6850714594489 C 394.7946176883895 631.6850714594489 392.10832618737425 628.9987799584336 392.10832618737425 625.6850714594489 C 392.10832618737425 622.3713629604641 394.7946176883895 619.6850714594489 398.10832618737425 619.6850714594489 C 401.422034686359 619.6850714594489 404.10832618737425 622.3713629604641 404.10832618737425 625.6850714594489 Z" stroke-opacity="1" stroke-linecap="round" stroke-linejoin="round" stroke-miterlimit="10"/><path fill="rgb(255,0,0)" stroke="none" paint-order="stroke fill markers" d=" M 687.287158013134 556.2954275511058 C 687.287158013134 559.6091360500906 684.6008665121187 562.2954275511058 681.287158013134 562.2954275511058 C 677.9734495141493 562.2954275511058 675.287158013134 559.6091360500906 675.287158013134 556.2954275511058 C 675.287158013134 552.9817190521211 677.9734495141493 550.2954275511058 681.287158013134 550.2954275511058 C 684.6008665121187 550.2954275511058 687.287158013134 552.9817190521211 687.287158013134 556.2954275511058 Z" fill-opacity="1"/><path fill="none" stroke="rgb(0,0,0)" paint-order="fill stroke markers" d=" M 687.287158013134 556.2954275511058 C 687.287158013134 559.6091360500906 684.6008665121187 562.2954275511058 681.287158013134 562.2954275511058 C 677.9734495141493 562.2954275511058 675.287158013134 559.6091360500906 675.287158013134 556.2954275511058 C 675.287158013134 552.9817190521211 677.9734495141493 550.2954275511058 681.287158013134 550.2954275511058 C 684.6008665121187 550.2954275511058 687.287158013134 552.9817190521211 687.287158013134 556.2954275511058 Z" stroke-opacity="1" stroke-linecap="round" stroke-linejoin="round" stroke-miterlimit="10"/><path fill="rgb(255,0,0)" stroke="none" paint-order="stroke fill markers" d=" M 751.3957628749205 271.8745066282524 C 751.3957628749205 275.18821512723713 748.7094713739052 277.8745066282524 745.3957628749205 277.8745066282524 C 742.0820543759357 277.8745066282524 739.3957628749205 275.18821512723713 739.3957628749205 271.8745066282524 C 739.3957628749205 268.56079812926765 742.0820543759357 265.8745066282524 745.3957628749205 265.8745066282524 C 748.7094713739052 265.8745066282524 751.3957628749205 268.56079812926765 751.3957628749205 271.8745066282524 Z" fill-opacity="1"/><path fill="none" stroke="rgb(0,0,0)" paint-order="fill stroke markers" d=" M 751.3957628749205 271.8745066282524 C 751.3957628749205 275.18821512723713 748.7094713739052 277.8745066282524 745.3957628749205 277.8745066282524 C 742.0820543759357 277.8745066282524 739.3957628749205 275.18821512723713 739.3957628749205 271.8745066282524 C 739.3957628749205 268.56079812926765 742.0820543759357 265.8745066282524 745.3957628749205 265.8745066282524 C 748.7094713739052 265.8745066282524 751.3957628749205 268.56079812926765 751.3957628749205 271.8745066282524 Z" stroke-opacity="1" stroke-linecap="round" stroke-linejoin="round" stroke-miterlimit="10"/><path fill="rgb(255,0,0)" stroke="none" paint-order="stroke fill markers" d=" M 525.3682592936018 87.70952325539301 C 525.3682592936018 91.02323175437778 522.6819677925865 93.70952325539301 519.3682592936018 93.70952325539301 C 516.0545507946171 93.70952325539301 513.3682592936018 91.02323175437778 513.3682592936018 87.70952325539301 C 513.3682592936018 84.39581475640824 516.0545507946171 81.70952325539301 519.3682592936018 81.70952325539301 C 522.6819677925865 81.70952325539301 525.3682592936018 84.39581475640824 525.3682592936018 87.70952325539301 Z" fill-opacity="1"/><path fill="none" stroke="rgb(0,0,0)" paint-order="fill stroke markers" d=" M 525.3682592936018 87.70952325539301 C 525.3682592936018 91.02323175437778 522.6819677925865 93.70952325539301 519.3682592936018 93.70952325539301 C 516.0545507946171 93.70952325539301 513.3682592936018 91.02323175437778 513.3682592936018 87.70952325539301 C 513.3682592936018 84.39581475640824 516.0545507946171 81.70952325539301 519.3682592936018 81.70952325539301 C 522.6819677925865 81.70952325539301 525.3682592936018 84.39581475640824 525.3682592936018 87.70952325539301 Z" stroke-opacity="1" stroke-linecap="round" stroke-linejoin="round" stroke-miterlimit="10"/><path fill="rgb(255,0,0)" stroke="none" paint-order="stroke fill markers" d=" M 259.76139881859035 207.95165041778293 C 259.76139881859035 211.2653589167677 257.0751073175751 213.95165041778293 253.76139881859035 213.95165041778293 C 250.44769031960558 213.95165041778293 247.76139881859035 211.2653589167677 247.76139881859035 207.95165041778293 C 247.76139881859035 204.63794191879816 250.44769031960558 201.95165041778293 253.76139881859035 201.95165041778293 C 257.0751073175751 201.95165041778293 259.76139881859035 204.63794191879816 259.76139881859035 207.95165041778293 Z" fill-opacity="1"/><path fill="none" stroke="rgb(0,0,0)" paint-order="fill stroke markers" d=" M 259.76139881859035 207.95165041778293 C 259.76139881859035 211.2653589167677 257.0751073175751 213.95165041778293 253.76139881859035 213.95165041778293 C 250.44769031960558 213.95165041778293 247.76139881859035 211.2653589167677 247.76139881859035 207.95165041778293 C 247.76139881859035 204.63794191879816 250.44769031960558 201.95165041778293 253.76139881859035 201.95165041778293 C 257.0751073175751 201.95165041778293 259.76139881859035 204.63794191879816 259.76139881859035 207.95165041778293 Z" stroke-opacity="1" stroke-linecap="round" stroke-linejoin="round" stroke-miterlimit="10"/><path fill="rgb(255,0,0)" stroke="none" paint-order="stroke fill markers" d=" M 249.0065718577094 499.3096899035164 C 249.0065718577094 502.62339840250115 246.32028035669416 505.3096899035164 243.0065718577094 505.3096899035164 C 239.69286335872462 505.3096899035164 237.0065718577094 502.62339840250115 237.0065718577094 499.3096899035164 C 237.0065718577094 495.9959814045317 239.69286335872462 493.3096899035164 243.0065718577094 493.3096899035164 C 246.32028035669416 493.3096899035164 249.0065718577094 495.9959814045317 249.0065718577094 499.3096899035164 Z" fill-opacity="1"/><path fill="none" stroke="rgb(0,0,0)" paint-order="fill stroke markers" d=" M 249.0065718577094 499.3096899035164 C 249.0065718577094 502.62339840250115 246.32028035669416 505.3096899035164 243.0065718577094 505.3096899035164 C 239.69286335872462 505.3096899035164 237.0065718577094 502.62339840250115 237.0065718577094 499.3096899035164 C 237.0065718577094 495.9959814045317 239.69286335872462 493.3096899035164 243.0065718577094 493.3096899035164 C 246.32028035669416 493.3096899035164 249.0065718577094 495.9959814045317 249.0065718577094 499.3096899035164 Z" stroke-opacity="1" stroke-linecap="round" stroke-linejoin="round" stroke-miterlimit="10"/><path fill="rgb(255,0,0)" stroke="none" paint-order="stroke fill markers" d=" M 505.0257545603124 638.8064696664193 C 505.0257545603124 642.120178165404 502.33946305929715 644.8064696664193 499.0257545603124 644.8064696664193 C 495.71204606132767 644.8064696664193 493.0257545603124 642.120178165404 493.0257545603124 638.8064696664193 C 493.0257545603124 635.4927611674345 495.71204606132767 632.8064696664193 499.0257545603124 632.8064696664193 C 502.33946305929715 632.8064696664193 505.0257545603124 635.4927611674345 505.0257545603124 638.8064696664193 Z" fill-opacity="1"/><path fill="none" stroke="rgb(0,0,0)" paint-order="fill stroke markers" d=" M 505.0257545603124 638.8064696664193 C 505.0257545603124 642.120178165404 502.33946305929715 644.8064696664193 499.0257545603124 644.8064696664193 C 495.71204606132767 644.8064696664193 493.0257545603124 642.120178165404 493.0257545603124 638.8064696664193 C 493.0257545603124 635.4927611674345 495.71204606132767 632.8064696664193 499.0257545603124 632.8064696664193 C 502.33946305929715 632.8064696664193 505.0257545603124 635.4927611674345 505.0257545603124 638.8064696664193 Z" stroke-opacity="1" stroke-linecap="round" stroke-linejoin="round" stroke-miterlimit="10"/><path fill="rgb(255,0,0)" stroke="none" paint-order="stroke fill markers" d=" M 744.0157206114156 471.8065606759616 C 744.0157206114156 475.1202691749463 741.3294291104004 477.8065606759616 738.0157206114156 477.8065606759616 C 734.7020121124309 477.8065606759616 732.0157206114156 475.1202691749463 732.0157206114156 471.8065606759616 C 732.0157206114156 468.49285217697684 734.7020121124309 465.8065606759616 738.0157206114156 465.8065606759616 C 741.3294291104004 465.8065606759616 744.0157206114156 468.49285217697684 744.0157206114156 471.8065606759616 Z" fill-opacity="1"/><path fill="none" stroke="rgb(0,0,0)" paint-order="fill stroke markers" d=" M 744.0157206114156 471.8065606759616 C 744.0157206114156 475.1202691749463 741.3294291104004 477.8065606759616 738.0157206114156 477.8065606759616 C 734.7020121124309 477.8065606759616 732.0157206114156 475.1202691749463 732.0157206114156 471.8065606759616 C 732.0157206114156 468.49285217697684 734.7020121124309 465.8065606759616 738.0157206114156 465.8065606759616 C 741.3294291104004 465.8065606759616 744.0157206114156 468.49285217697684 744.0157206114156 471.8065606759616 Z" stroke-opacity="1" stroke-linecap="round" stroke-linejoin="round" stroke-miterlimit="10"/><path fill="rgb(255,0,0)" stroke="none" paint-order="stroke fill markers" d=" M 701.0505269382312 183.43325121658307 C 701.0505269382312 186.74695971556784 698.3642354372159 189.43325121658307 695.0505269382312 189.43325121658307 C 691.7368184392465 189.43325121658307 689.0505269382312 186.74695971556784 689.0505269382312 183.43325121658307 C 689.0505269382312 180.1195427175983 691.7368184392465 177.43325121658307 695.0505269382312 177.43325121658307 C 698.3642354372159 177.43325121658307 701.0505269382312 180.1195427175983 701.0505269382312 183.43325121658307 Z" fill-opacity="1"/><path fill="none" stroke="rgb(0,0,0)" paint-order="fill stroke markers" d=" M 701.0505269382312 183.43325121658307 C 701.0505269382312 186.74695971556784 698.3642354372159 189.43325121658307 695.0505269382312 189.43325121658307 C 691.7368184392465 189.43325121658307 689.0505269382312 186.74695971556784 689.0505269382312 183.43325121658307 C 689.0505269382312 180.1195427175983 691.7368184392465 177.43325121658307 695.0505269382312 177.43325121658307 C 698.3642354372159 177.43325121658307 701.0505269382312 180.1195427175983 701.0505269382312 183.43325121658307 Z" stroke-opacity="1" stroke-linecap="round" stroke-linejoin="round" stroke-miterlimit="10"/><path fill="rgb(255,0,0)" stroke="none" paint-order="stroke fill markers" d=" M 423.7580913201165 93.35507059051665 C 423.7580913201165 96.66877908950141 421.0717998191012 99.35507059051665 417.7580913201165 99.35507059051665 C 414.44438282113174 99.35507059051665 411.7580913201165 96.66877908950141 411.7580913201165 93.35507059051665 C 411.7580913201165 90.04136209153188 414.44438282113174 87.35507059051665 417.7580913201165 87.35507059051665 C 421.0717998191012 87.35507059051665 423.7580913201165 90.04136209153188 423.7580913201165 93.35507059051665 Z" fill-opacity="1"/><path fill="none" stroke="rgb(0,0,0)" paint-order="fill stroke markers" d=" M 423.7580913201165 93.35507059051665 C 423.7580913201165 96.66877908950141 421.0717998191012 99.35507059051665 417.7580913201165 99.35507059051665 C 414.44438282113174 99.35507059051665 411.7580913201165 96.66877908950141 411.7580913201165 93.35507059051665 C 411.7580913201165 90.04136209153188 414.44438282113174 87.35507059051665 417.7580913201165 87.35507059051665 C 421.0717998191012 87.35507059051665 423.7580913201165 90.04136209153188 423.7580913201165 93.35507059051665 Z" stroke-opacity="1" stroke-linecap="round" stroke-linejoin="round" stroke-miterlimit="10"/><path fill="rgb(255,0,0)" stroke="none" paint-order="stroke fill markers" d=" M 219.5235363499213 301.4257798026857 C 219.5235363499213 304.73948830167046 216.83724484890607 307.4257798026857 213.5235363499213 307.4257798026857 C 210.20982785093653 307.4257798026857 207.5235363499213 304.73948830167046 207.5235363499213 301.4257798026857 C 207.5235363499213 298.112071303701 210.20982785093653 295.4257798026857 213.5235363499213 295.4257798026857 C 216.83724484890607 295.4257798026857 219.5235363499213 298.112071303701 219.5235363499213 301.4257798026857 Z" fill-opacity="1"/><path fill="none" stroke="rgb(0,0,0)" paint-order="fill stroke markers" d=" M 219.5235363499213 301.4257798026857 C 219.5235363499213 304.73948830167046 216.83724484890607 307.4257798026857 213.5235363499213 307.4257798026857 C 210.20982785093653 307.4257798026857 207.5235363499213 304.73948830167046 207.5235363499213 301.4257798026857 C 207.5235363499213 298.112071303701 210.20982785093653 295.4257798026857 213.5235363499213 295.4257798026857 C 216.83724484890607 295.4257798026857 219.5235363499213 298.112071303701 219.5235363499213 301.4257798026857 Z" stroke-opacity="1" stroke-linecap="round" stroke-linejoin="round" stroke-miterlimit="10"/><path fill="rgb(255,0,0)" stroke="none" paint-order="stroke fill markers" d=" M 314.7456225177009 576.9941520477327 C 314.7456225177009 580.3078605467174 312.05933101668563 582.9941520477327 308.7456225177009 582.9941520477327 C 305.43191401871616 582.9941520477327 302.7456225177009 580.3078605467174 302.7456225177009 576.9941520477327 C 302.7456225177009 573.6804435487479 305.43191401871616 570.9941520477327 308.7456225177009 570.9941520477327 C 312.05933101668563 570.9941520477327 314.7456225177009 573.6804435487479 314.7456225177009 576.9941520477327 Z" fill-opacity="1"/><path fill="none" stroke="rgb(0,0,0)" paint-order="fill stroke markers" d=" M 314.7456225177009 576.9941520477327 C 314.7456225177009 580.3078605467174 312.05933101668563 582.9941520477327 308.7456225177009 582.9941520477327 C 305.43191401871616 582.9941520477327 302.7456225177009 580.3078605467174 302.7456225177009 576.9941520477327 C 302.7456225177009 573.6804435487479 305.43191401871616 570.9941520477327 308.7456225177009 570.9941520477327 C 312.05933101668563 570.9941520477327 314.7456225177009 573.6804435487479 314.7456225177009 576.9941520477327 Z" stroke-opacity="1" stroke-linecap="round" stroke-linejoin="round" stroke-miterlimit="10"/><path fill="rgb(255,0,0)" stroke="none" paint-order="stroke fill markers" d=" M 603.8684497319719 614.5862291326114 C 603.8684497319719 617.8999376315961 601.1821582309566 620.5862291326114 597.8684497319719 620.5862291326114 C 594.5547412329871 620.5862291326114 591.8684497319719 617.8999376315961 591.8684497319719 614.5862291326114 C 591.8684497319719 611.2725206336266 594.5547412329871 608.5862291326114 597.8684497319719 608.5862291326114 C 601.1821582309566 608.5862291326114 603.8684497319719 611.2725206336266 603.8684497319719 614.5862291326114 Z" fill-opacity="1"/><path fill="none" stroke="rgb(0,0,0)" paint-order="fill stroke markers" d=" M 603.8684497319719 614.5862291326114 C 603.8684497319719 617.8999376315961 601.1821582309566 620.5862291326114 597.8684497319719 620.5862291326114 C 594.5547412329871 620.5862291326114 591.8684497319719 617.8999376315961 591.8684497319719 614.5862291326114 C 591.8684497319719 611.2725206336266 594.5547412329871 608.5862291326114 597.8684497319719 608.5862291326114 C 601.1821582309566 608.5862291326114 603.8684497319719 611.2725206336266 603.8684497319719 614.5862291326114 Z" stroke-opacity="1" stroke-linecap="round" stroke-linejoin="round" stroke-miterlimit="10"/></g></g></svg>