<svg version="1.1" xmlns="http://www.w3.org/2000/svg" xmlns:xlink="http://www.w3.org/1999/xlink" width="908" height="789"><defs><clipPath id="eNmalkXSPkON"><path fill="none" stroke="none" d=" M 0 0 L 908 0 L 908 789 L 0 789 L 0 0 Z"/></clipPath></defs><g transform="scale(1,1)" clip-path="url(#eNmalkXSPkON)"><g><rect fill="rgb(255,255,255)" stroke="none" x="0" y="0" width="908" height="789" fill-opacity="1"/><path fill="none" stroke="rgb(51,0,0)" paint-order="fill stroke markers" d=" M 492.449047059308 100.2861674181757 L 576.9832338165068 667.6617827373487" stroke-opacity="1" stroke-linecap="round" stroke-linejoin="round" stroke-miterlimit="10" stroke-width="4.5"/><path fill="none" stroke="rgb(51,0,0)" paint-order="fill stroke markers" d=" M 492.449047059308 100.2861674181757 L 265.6366888589021 627.1801527293422" stroke-opacity="1" stroke-linecap="round" stroke-linejoin="round" stroke-miterlimit="10" stroke-width="4.5"/><path fill="none" stroke="rgb(51,0,0)" paint-order="fill stroke markers" d=" M 596.676826226314 134.14446108973308 L 470.54289518082095 693.7437364900168" stroke-opacity="1" stroke-linecap="round" stroke-linejoin="round" stroke-miterlimit="10" stroke-width="4.5"/><path fill="none" stroke="rgb(51,0,0)" paint-order="fill stroke markers" d=" M 596.676826226314 134.14446108973308 L 194.8445397609251 543.524396044428" stroke-opacity="1" stroke-linecap="round" stroke-linejoin="round" stroke-miterlimit="10" stroke-width="4.5"/><path fill="none" stroke="rgb(51,0,0)" paint-order="fill stroke markers" d=" M 681.6353094118667 203.36779628275087 L 361.86834688361904 679.6137487747076" stroke-opacity="1" stroke-linecap="round" stroke-linejoin="round" stroke-miterlimit="10" stroke-width="4.5"/><path fill="none" stroke="rgb(51,0,0)" paint-order="fill stroke markers" d=" M 681.6353094118667 203.36779628275087 L 159.05277159821514 439.9446522128155" stroke-opacity="1" stroke-linecap="round" stroke-linejoin="round" stroke-miterlimit="10" stroke-width="4.5"/><path fill="none" stroke="rgb(51,0,0)" paint-order="fill stroke markers" d=" M 735.8503826905563 298.6071779996751 L 265.6366888589021 627.1801527293422" stroke-opacity="1" stroke-linecap="round" stroke-linejoin="round" stroke-miterlimit="10" stroke-width="4.5"/><path fill="none" stroke="rgb(51,0,0)" paint-order="fill stroke markers" d=" M 735.8503826905563 298.6071779996751 L 163.09526099017884 330.4299395941426" stroke-opacity="1" stroke-linecap="round" stroke-linejoin="round" stroke-miterlimit="10" stroke-width="4.5"/><path fill="none" stroke="rgb(51,0,0)" paint-order="fill stroke markers" d=" M 752 407 L 194.8445397609251 543.524396044428" stroke-opacity="1" stroke-linecap="round" stroke-linejoin="round" stroke-miterlimit="10" stroke-width="4.5"/><path fill="none" stroke="rgb(51,0,0)" paint-order="fill stroke markers" d=" M 752 407 L 206.426047344225 229.7708269695235" stroke-opacity="1" stroke-linecap="round" stroke-linejoin="round" stroke-miterlimit="10" stroke-width="4.5"/><path fill="none" stroke="rgb(51,0,0)" paint-order="fill stroke markers" d=" M 727.9030660344404 513.9072110472171 L 159.05277159821514 439.9446522128155" stroke-opacity="1" stroke-linecap="round" stroke-linejoin="round" stroke-miterlimit="10" stroke-width="4.5"/><path fill="none" stroke="rgb(51,0,0)" paint-order="fill stroke markers" d=" M 727.9030660344404 513.9072110472171 L 283.193067859064 151.56188527031688" stroke-opacity="1" stroke-linecap="round" stroke-linejoin="round" stroke-miterlimit="10" stroke-width="4.5"/><path fill="none" stroke="rgb(51,0,0)" paint-order="fill stroke markers" d=" M 666.8140052516451 604.8903998961007 L 163.09526099017884 330.4299395941426" stroke-opacity="1" stroke-linecap="round" stroke-linejoin="round" stroke-miterlimit="10" stroke-width="4.5"/><path fill="none" stroke="rgb(51,0,0)" paint-order="fill stroke markers" d=" M 666.8140052516451 604.8903998961007 L 383.0285110334172 106.36566544370757" stroke-opacity="1" stroke-linecap="round" stroke-linejoin="round" stroke-miterlimit="10" stroke-width="4.5"/><path fill="none" stroke="rgb(51,0,0)" paint-order="fill stroke markers" d=" M 576.9832338165068 667.6617827373487 L 206.426047344225 229.7708269695235" stroke-opacity="1" stroke-linecap="round" stroke-linejoin="round" stroke-miterlimit="10" stroke-width="4.5"/><path fill="none" stroke="rgb(51,0,0)" paint-order="fill stroke markers" d=" M 470.54289518082095 693.7437364900168 L 283.193067859064 151.56188527031688" stroke-opacity="1" stroke-linecap="round" stroke-linejoin="round" stroke-miterlimit="10" stroke-width="4.5"/><path fill="none" stroke="rgb(51,0,0)" paint-order="fill stroke markers" d=" M 361.86834688361904 679.6137487747076 L 383.0285110334172 106.36566544370757" stroke-opacity="1" stroke-linecap="round" stroke-linejoin="round" stroke-miterlimit="10" stroke-width="4.5"/><path fill="rgb(255,0,0)" stroke="none" paint-order="stroke fill markers" d=" M 758 407 C 758 410.31370849898474 755.3137084989847 413 752 413 C 748.6862915010153 413 746 410.31370849898474 746 407 C 746 403.68629150101526 748.6862915010153 401 752 401 C 755.3137084989847 401 758 403.68629150101526 758 407 Z" fill-opacity="1"/><path fill="none" stroke="rgb(0,0,0)" paint-order="fill stroke markers" d=" M 758 407 C 758 410.31370849898474 755.3137084989847 413 752 413 C 748.6862915010153 413 746 410.31370849898474 746 407 C 746 403.68629150101526 748.6862915010153 401 752 401 C 755.3137084989847 401 758 403.68629150101526 758 407 Z" stroke-opacity="1" stroke-linecap="round" stroke-linejoin="round" stroke-miterlimit="10"/><path fill="rgb(255,0,0)" stroke="none" paint-order="stroke fill markers" d=" M 602.676826226314 134.14446108973308 C 602.676826226314 137.45816958871785 599.9905347252987 140.14446108973308 596.676826226314 140.14446108973308 C 593.3631177273293 140.14446108973308 590.676826226314 137.45816958871785 590.676826226314 134.14446108973308 C 590.676826226314 130.83075259074832 593.3631177273293 128.14446108973308 596.676826226314 128.14446108973308 C 599.9905347252987 128.14446108973308 602.676826226314 130.83075259074832 602.676826226314 134.14446108973308 Z" fill-opacity="1"/><path fill="none" stroke="rgb(0,0,0)" paint-order="fill stroke markers" d=" M 602.676826226314 134.14446108973308 C 602.676826226314 137.45816958871785 599.9905347252987 140.14446108973308 596.676826226314 140.14446108973308 C 593.3631177273293 140.14446108973308 590.676826226314 137.45816958871785 590.676826226314 134.14446108973308 C 590.676826226314 130.83075259074832 593.3631177273293 128.14446108973308 596.676826226314 128.14446108973308 C 599.9905347252987 128.14446108973308 602.676826226314 130.83075259074832 602.676826226314 134.14446108973308 Z" stroke-opacity="1" stroke-linecap="round" stroke-linejoin="round" stroke-miterlimit="10"/><path fill="rgb(255,0,0)" stroke="none" paint-order="stroke fill markers" d=" M 289.193067859064 151.56188527031688 C 289.193067859064 154.87559376930164 286.50677635804874 157.56188527031688 283.193067859064 157.56188527031688 C 279.87935936007926 157.56188527031688 277.193067859064 154.87559376930164 277.193067859064 151.56188527031688 C 277.193067859064 148.2481767713321 279.87935936007926 145.56188527031688 283.193067859064 145.56188527031688 C 286.50677635804874 145.56188527031688 289.193067859064 148.2481767713321 289.193067859064 151.56188527031688 Z" fill-opacity="1"/><path fill="none" stroke="rgb(0,0,0)" paint-order="fill stroke markers" d=" M 289.193067859064 151.56188527031688 C 289.193067859064 154.87559376930164 286.50677635804874 157.56188527031688 283.193067859064 157.56188527031688 C 279.87935936007926 157.56188527031688 277.193067859064 154.87559376930164 277.193067859064 151.56188527031688 C 277.193067859064 148.2481767713321 279.87935936007926 145.56188527031688 283.193067859064 145.56188527031688 C 286.50677635804874 145.56188527031688 289.193067859064 148.2481767713321 289.193067859064 151.56188527031688 Z" stroke-opacity="1" stroke-linecap="round" stroke-linejoin="round" stroke-miterlimit="10"/><path fill="rgb(255,0,0)" stroke="none" paint-order="stroke fill markers" d=" M 165.05277159821514 439.9446522128155 C 165.05277159821514 443.25836071180026 162.3664800971999 445.9446522128155 159.05277159821514 445.9446522128155 C 155.73906309923038 445.9446522128155 153.05277159821514 443.25836071180026 153.05277159821514 439.9446522128155 C 153.05277159821514 436.6309437138308 155.73906309923038 433.9446522128155 159.05277159821514 433.9446522128155 C 162.3664800971999 433.9446522128155 165.05277159821514 436.6309437138308 165.05277159821514 439.9446522128155 Z" fill-opacity="1"/><path fill="none" stroke="rgb(0,0,0)" paint-order="fill stroke markers" d=" M 165.05277159821514 439.9446522128155 C 165.05277159821514 443.25836071180026 162.3664800971999 445.9446522128155 159.05277159821514 445.9446522128155 C 155.73906309923038 445.9446522128155 153.05277159821514 443.25836071180026 153.05277159821514 439.9446522128155 C 153.05277159821514 436.6309437138308 155.73906309923038 433.9446522128155 159.05277159821514 433.9446522128155 C 162.3664800971999 433.9446522128155 165.05277159821514 436.6309437138308 165.05277159821514 439.9446522128155 Z" stroke-opacity="1" stroke-linecap="round" stroke-linejoin="round" stroke-miterlimit="10"/><path fill="rgb(255,0,0)" stroke="none" paint-order="stroke fill markers" d=" M 367.86834688361904 679.6137487747076 C 367.86834688361904 682.9274572736923 365.1820553826038 685.6137487747076 361.86834688361904 685.6137487747076 C 358.5546383846343 685.6137487747076 355.86834688361904 682.9274572736923 355.86834688361904 679.6137487747076 C 355.86834688361904 676.3000402757228 358.5546383846343 673.6137487747076 361.86834688361904 673.6137487747076 C 365.1820553826038 673.6137487747076 367.86834688361904 676.3000402757228 367.86834688361904 679.6137487747076 Z" fill-opacity="1"/><path fill="none" stroke="rgb(0,0,0)" paint-order="fill stroke markers" d=" M 367.86834688361904 679.6137487747076 C 367.86834688361904 682.9274572736923 365.1820553826038 685.6137487747076 361.86834688361904 685.6137487747076 C 358.5546383846343 685.6137487747076 355.86834688361904 682.9274572736923 355.86834688361904 679.6137487747076 C 355.86834688361904 676.3000402757228 358.5546383846343 673.6137487747076 361.86834688361904 673.6137487747076 C 365.1820553826038 673.6137487747076 367.86834688361904 676.3000402757228 367.86834688361904 679.6137487747076 Z" stroke-opacity="1" stroke-linecap="round" stroke-linejoin="round" stroke-miterlimit="10"/><path fill="rgb(255,0,0)" stroke="none" paint-order="stroke fill markers" d=" M 672.8140052516451 604.8903998961007 C 672.8140052516451 608.2041083950854 670.1277137506298 610.8903998961007 666.8140052516451 610.8903998961007 C 663.5002967526603 610.8903998961007 660.8140052516451 608.2041083950854 660.8140052516451 604.8903998961007 C 660.8140052516451 601.576691397116 663.5002967526603 598.8903998961007 666.8140052516451 598.8903998961007 C 670.1277137506298 598.8903998961007 672.8140052516451 601.576691397116 672.8140052516451 604.8903998961007 Z" fill-opacity="1"/><path fill="none" stroke="rgb(0,0,0)" paint-order="fill stroke markers" d=" M 672.8140052516451 604.8903998961007 C 672.8140052516451 608.2041083950854 670.1277137506298 610.8903998961007 666.8140052516451 610.8903998961007 C 663.5002967526603 610.8903998961007 660.8140052516451 608.2041083950854 660.8140052516451 604.8903998961007 C 660.8140052516451 601.576691397116 663.5002967526603 598.8903998961007 666.8140052516451 598.8903998961007 C 670.1277137506298 598.8903998961007 672.8140052516451 601.576691397116 672.8140052516451 604.8903998961007 Z" stroke-opacity="1" stroke-linecap="round" stroke-linejoin="round" stroke-miterlimit="10"/><path fill="rgb(255,0,0)" stroke="none" paint-order="stroke fill markers" d=" M 741.8503826905563 298.6071779996751 C 741.8503826905563 301.92088649865985 739.1640911895411 304.6071779996751 735.8503826905563 304.6071779996751 C 732.5366741915716 304.6071779996751 729.8503826905563 301.92088649865985 729.8503826905563 298.6071779996751 C 729.8503826905563 295.2934695006904 732.5366741915716 292.6071779996751 735.8503826905563 292.6071779996751 C 739.1640911895411 292.6071779996751 741.8503826905563 295.2934695006904 741.8503826905563 298.6071779996751 Z" fill-opacity="1"/><path fill="none" stroke="rgb(0,0,0)" paint-order="fill stroke markers" d=" M 741.8503826905563 298.6071779996751 C 741.8503826905563 301.92088649865985 739.1640911895411 304.6071779996751 735.8503826905563 304.6071779996751 C 732.5366741915716 304.6071779996751 729.8503826905563 301.92088649865985 729.8503826905563 298.6071779996751 C 729.8503826905563 295.2934695006904 732.5366741915716 292.6071779996751 735.8503826905563 292.6071779996751 C 739.1640911895411 292.6071779996751 741.8503826905563 295.2934695006904 741.8503826905563 298.6071779996751 Z" stroke-opacity="1" stroke-linecap="round" stroke-linejoin="round" stroke-miterlimit="10"/><path fill="rgb(255,0,0)" stroke="none" paint-order="stroke fill markers" d=" M 498.449047059308 100.2861674181757 C 498.449047059308 103.59987591716046 495.7627555582927 106.2861674181757 492.449047059308 106.2861674181757 C 489.13533856032325 106.2861674181757 486.449047059308 103.59987591716046 486.449047059308 100.2861674181757 C 486.449047059308 96.97245891919093 489.13533856032325 94.2861674181757 492.449047059308 94.2861674181757 C 495.7627555582927 94.2861674181757 498.449047059308 96.97245891919093 498.449047059308 100.2861674181757 Z" fill-opacity="1"/><path fill="none" stroke="rgb(0,0,0)" paint-order="fill stroke markers" d=" M 498.449047059308 100.2861674181757 C 498.449047059308 103.59987591716046 495.7627555582927 106.2861674181757 492.449047059308 106.2861674181757 C 489.13533856032325 106.2861674181757 486.449047059308 103.59987591716046 486.449047059308 100.2861674181757 C 486.449047059308 96.97245891919093 489.13533856032325 94.2861674181757 492.449047059308 94.2861674181757 C 495.7627555582927 94.2861674181757 498.449047059308 96.97245891919093 498.449047059308 100.2861674181757 Z" stroke-opacity="1" stroke-linecap="round" stroke-linejoin="round" stroke-miterlimit="10"/><path fill="rgb(255,0,0)" stroke="none" paint-order="stroke fill markers" d=" M 212.426047344225 229.7708269695235 C 212.426047344225 233.08453546850828 209.73975584320976 235.7708269695235 206.426047344225 235.7708269695235 C 203.11233884524023 235.7708269695235 200.426047344225 233.08453546850828 200.426047344225 229.7708269695235 C 200.426047344225 226.45711847053875 203.11233884524023 223.7708269695235 206.426047344225 223.7708269695235 C 209.73975584320976 223.7708269695235 212.426047344225 226.45711847053875 212.426047344225 229.7708269695235 Z" fill-opacity="1"/><path fill="none" stroke="rgb(0,0,0)" paint-order="fill stroke markers" d=" M 212.426047344225 229.7708269695235 C 212.426047344225 233.08453546850828 209.73975584320976 235.7708269695235 206.426047344225 235.7708269695235 C 203.11233884524023 235.7708269695235 200.426047344225 233.08453546850828 200.426047344225 229.7708269695235 C 200.426047344225 226.45711847053875 203.11233884524023 223.7708269695235 206.426047344225 223.7708269695235 C 209.73975584320976 223.7708269695235 212.426047344225 226.45711847053875 212.426047344225 229.7708269695235 Z" stroke-opacity="1" stroke-linecap="round" stroke-linejoin="round" stroke-miterlimit="10"/><path fill="rgb(255,0,0)" stroke="none" paint-order="stroke fill markers" d=" M 200.8445397609251 543.524396044428 C 200.8445397609251 546.8381045434128 198.15824825990987 549.524396044428 194.8445397609251 549.524396044428 C 191.53083126194034 549.524396044428 188.8445397609251 546.8381045434128 188.8445397609251 543.524396044428 C 188.8445397609251 540.2106875454433 191.53083126194034 537.524396044428 194.8445397609251 537.524396044428 C 198.15824825990987 537.524396044428 200.8445397609251 540.2106875454433 200.8445397609251 543.524396044428 Z" fill-opacity="1"/><path fill="none" stroke="rgb(0,0,0)" paint-order="fill stroke markers" d=" M 200.8445397609251 543.524396044428 C 200.8445397609251 546.8381045434128 198.15824825990987 549.524396044428 194.8445397609251 549.524396044428 C 191.53083126194034 549.524396044428 188.8445397609251 546.8381045434128 188.8445397609251 543.524396044428 C 188.8445397609251 540.2106875454433 191.53083126194034 537.524396044428 194.8445397609251 537.524396044428 C 198.15824825990987 537.524396044428 200.8445397609251 540.2106875454433 200.8445397609251 543.524396044428 Z" stroke-opacity="1" stroke-linecap="round" stroke-linejoin="round" stroke-miterlimit="10"/><path fill="rgb(255,0,0)" stroke="none" paint-order="stroke fill markers" d=" M 476.54289518082095 693.7437364900168 C 476.54289518082095 697.0574449890015 473.8566036798057 699.7437364900168 470.54289518082095 699.7437364900168 C 467.2291866818362 699.7437364900168 464.54289518082095 697.0574449890015 464.54289518082095 693.7437364900168 C 464.54289518082095 690.430027991032 467.2291866818362 687.7437364900168 470.54289518082095 687.7437364900168 C 473.8566036798057 687.7437364900168 476.54289518082095 690.430027991032 476.54289518082095 693.7437364900168 Z" fill-opacity="1"/><path fill="none" stroke="rgb(0,0,0)" paint-order="fill stroke markers" d=" M 476.54289518082095 693.7437364900168 C 476.54289518082095 697.0574449890015 473.8566036798057 699.7437364900168 470.54289518082095 699.7437364900168 C 467.2291866818362 699.7437364900168 464.54289518082095 697.0574449890015 464.54289518082095 693.7437364900168 C 464.54289518082095 690.430027991032 467.2291866818362 687.7437364900168 470.54289518082095 687.7437364900168 C 473.8566036798057 687.7437364900168 476.54289518082095 690.430027991032 476.54289518082095 693.7437364900168 Z" stroke-opacity="1" stroke-linecap="round" stroke-linejoin="round" stroke-miterlimit="10"/><path fill="rgb(255,0,0)" stroke="none" paint-order="stroke fill markers" d=" M 733.9030660344404 513.9072110472171 C 733.9030660344404 517.2209195462018 731.2167745334251 519.9072110472171 727.9030660344404 519.9072110472171 C 724.5893575354556 519.9072110472171 721.9030660344404 517.2209195462018 721.9030660344404 513.9072110472171 C 721.9030660344404 510.5935025482323 724.5893575354556 507.90721104721706 727.9030660344404 507.90721104721706 C 731.2167745334251 507.90721104721706 733.9030660344404 510.5935025482323 733.9030660344404 513.9072110472171 Z" fill-opacity="1"/><path fill="none" stroke="rgb(0,0,0)" paint-order="fill stroke markers" d=" M 733.9030660344404 513.9072110472171 C 733.9030660344404 517.2209195462018 731.2167745334251 519.9072110472171 727.9030660344404 519.9072110472171 C 724.5893575354556 519.9072110472171 721.9030660344404 517.2209195462018 721.9030660344404 513.9072110472171 C 721.9030660344404 510.5935025482323 724.5893575354556 507.90721104721706 727.9030660344404 507.90721104721706 C 731.2167745334251 507.90721104721706 733.9030660344404 510.5935025482323 733.9030660344404 513.9072110472171 Z" stroke-opacity="1" stroke-linecap="round" stroke-linejoin="round" stroke-miterlimit="10"/><path fill="rgb(255,0,0)" stroke="none" paint-order="stroke fill markers" d=" M 687.6353094118667 203.36779628275087 C 687.6353094118667 206.68150478173564 684.9490179108515 209.36779628275087 681.6353094118667 209.36779628275087 C 678.321600912882 209.36779628275087 675.6353094118667 206.68150478173564 675.6353094118667 203.36779628275087 C 675.6353094118667 200.0540877837661 678.321600912882 197.36779628275087 681.6353094118667 197.36779628275087 C 684.9490179108515 197.36779628275087 687.6353094118667 200.0540877837661 687.6353094118667 203.36779628275087 Z" fill-opacity="1"/><path fill="none" stroke="rgb(0,0,0)" paint-order="fill stroke markers" d=" M 687.6353094118667 203.36779628275087 C 687.6353094118667 206.68150478173564 684.9490179108515 209.36779628275087 681.6353094118667 209.36779628275087 C 678.321600912882 209.36779628275087 675.6353094118667 206.68150478173564 675.6353094118667 203.36779628275087 C 675.6353094118667 200.0540877837661 678.321600912882 197.36779628275087 681.6353094118667 197.36779628275087 C 684.9490179108515 197.36779628275087 687.6353094118667 200.0540877837661 687.6353094118667 203.36779628275087 Z" stroke-opacity="1" stroke-linecap="round" stroke-linejoin="round" stroke-miterlimit="10"/><path fill="rgb(255,0,0)" stroke="none" paint-order="stroke fill markers" d=" M 389.0285110334172 106.36566544370757 C 389.0285110334172 109.67937394269234 386.34221953240194 112.36566544370757 383.0285110334172 112.36566544370757 C 379.71480253443247 112.36566544370757 377.0285110334172 109.67937394269234 377.0285110334172 106.36566544370757 C 377.0285110334172 103.0519569447228 379.71480253443247 100.36566544370757 383.0285110334172 100.36566544370757 C 386.34221953240194 100.36566544370757 389.0285110334172 103.0519569447228 389.0285110334172 106.36566544370757 Z" fill-opacity="1"/><path fill="none" stroke="rgb(0,0,0)" paint-order="fill stroke markers" d=" M 389.0285110334172 106.36566544370757 C 389.0285110334172 109.67937394269234 386.34221953240194 112.36566544370757 383.0285110334172 112.36566544370757 C 379.71480253443247 112.36566544370757 377.0285110334172 109.67937394269234 377.0285110334172 106.36566544370757 C 377.0285110334172 103.0519569447228 379.71480253443247 100.36566544370757 383.0285110334172 100.36566544370757 C 386.34221953240194 100.36566544370757 389.0285110334172 103.0519569447228 389.0285110334172 106.36566544370757 Z" stroke-opacity="1" stroke-linecap="round" stroke-linejoin="round" stroke-miterlimit="10"/><path fill="rgb(255,0,0)" stroke="none" paint-order="stroke fill markers" d=" M 169.09526099017884 330.4299395941426 C 169.09526099017884 333.7436480931273 166.4089694891636 336.4299395941426 163.09526099017884 336.4299395941426 C 159.78155249119408 336.4299395941426 157.09526099017884 333.7436480931273 157.09526099017884 330.4299395941426 C 157.09526099017884 327.11623109515784 159.78155249119408 324.4299395941426 163.09526099017884 324.4299395941426 C 166.4089694891636 324.4299395941426 169.09526099017884 327.11623109515784 169.09526099017884 330.4299395941426 Z" fill-opacity="1"/><path fill="none" stroke="rgb(0,0,0)" paint-order="fill stroke markers" d=" M 169.09526099017884 330.4299395941426 C 169.09526099017884 333.7436480931273 166.4089694891636 336.4299395941426 163.09526099017884 336.4299395941426 C 159.78155249119408 336.4299395941426 157.09526099017884 333.7436480931273 157.09526099017884 330.4299395941426 C 157.09526099017884 327.11623109515784 159.78155249119408 324.4299395941426 163.09526099017884 324.4299395941426 C 166.4089694891636 324.4299395941426 169.09526099017884 327.11623109515784 169.09526099017884 330.4299395941426 Z" stroke-opacity="1" stroke-linecap="round" stroke-linejoin="round" stroke-miterlimit="10"/><path fill="rgb(255,0,0)" stroke="none" paint-order="stroke fill markers" d=" M 271.6366888589021 627.1801527293422 C 271.6366888589021 630.493861228327 268.95039735788686 633.1801527293422 265.6366888589021 633.1801527293422 C 262.3229803599174 633.1801527293422 259.6366888589021 630.493861228327 259.6366888589021 627.1801527293422 C 259.6366888589021 623.8664442303575 262.3229803599174 621.1801527293422 265.6366888589021 621.1801527293422 C 268.95039735788686 621.1801527293422 271.6366888589021 623.8664442303575 271.6366888589021 627.1801527293422 Z" fill-opacity="1"/><path fill="none" stroke="rgb(0,0,0)" paint-order="fill stroke markers" d=" M 271.6366888589021 627.1801527293422 C 271.6366888589021 630.493861228327 268.95039735788686 633.1801527293422 265.6366888589021 633.1801527293422 C 262.3229803599174 633.1801527293422 259.6366888589021 630.493861228327 259.6366888589021 627.1801527293422 C 259.6366888589021 623.8664442303575 262.3229803599174 621.1801527293422 265.6366888589021 621.1801527293422 C 268.95039735788686 621.1801527293422 271.6366888589021 623.8664442303575 271.6366888589021 627.1801527293422 Z" stroke-opacity="1" stroke-linecap="round" stroke-linejoin="round" stroke-miterlimit="10"/><path fill="rgb(255,0,0)" stroke="none" paint-order="stroke fill markers" d=" M 582.9832338165068 667.6617827373487 C 582.9832338165068 670.9754912363335 580.2969423154915 673.6617827373487 576.9832338165068 673.6617827373487 C 573.669525317522 673.6617827373487 570.9832338165068 670.9754912363335 570.9832338165068 667.6617827373487 C 570.9832338165068 664.348074238364 573.669525317522 661.6617827373487 576.9832338165068 661.6617827373487 C 580.2969423154915 661.6617827373487 582.9832338165068 664.348074238364 582.9832338165068 667.6617827373487 Z" fill-opacity="1"/><path fill="none" stroke="rgb(0,0,0)" paint-order="fill stroke markers" d=" M 582.9832338165068 667.6617827373487 C 582.9832338165068 670.9754912363335 580.2969423154915 673.6617827373487 576.9832338165068 673.6617827373487 C 573.669525317522 673.6617827373487 570.9832338165068 670.9754912363335 570.9832338165068 667.6617827373487 C 570.9832338165068 664.348074238364 573.669525317522 661.6617827373487 576.9832338165068 661.6617827373487 C 580.2969423154915 661.6617827373487 582.9832338165068 664.348074238364 582.9832338165068 667.6617827373487 Z" stroke-opacity="1" stroke-linecap="round" stroke-linejoin="round" stroke-miterlimit="10"/></g></g></svg>