<svg version="1.1" xmlns="http://www.w3.org/2000/svg" xmlns:xlink="http://www.w3.org/1999/xlink" width="908" height="797"><defs><clipPath id="rzZdWlaDCzgW"><path fill="none" stroke="none" d=" M 0 0 L 908 0 L 908 797 L 0 797 L 0 0 Z"/></clipPath></defs><g transform="scale(1,1)" clip-path="url(#rzZdWlaDCzgW)"><g><rect fill="rgb(255,255,255)" stroke="none" x="0" y="0" width="908" height="797" fill-opacity="1"/><path fill="none" stroke="rgb(51,0,0)" paint-order="fill stroke markers" d=" M 500.68460915394246 39.44598562606518 L 603.3255266991495 728.3501554432191" stroke-opacity="1" stroke-linecap="round" stroke-linejoin="round" stroke-miterlimit="10" stroke-width="6.5"/><path fill="none" stroke="rgb(51,0,0)" paint-order="fill stroke markers" d=" M 500.68460915394246 39.44598562606518 L 225.29036394581317 679.1975959032347" stroke-opacity="1" stroke-linecap="round" stroke-linejoin="round" stroke-miterlimit="10" stroke-width="6.5"/><path fill="none" stroke="rgb(51,0,0)" paint-order="fill stroke markers" d=" M 627.2373719802753 80.55652873622026 L 474.08628704373314 760.0187118845871" stroke-opacity="1" stroke-linecap="round" stroke-linejoin="round" stroke-miterlimit="10" stroke-width="6.5"/><path fill="none" stroke="rgb(51,0,0)" paint-order="fill stroke markers" d=" M 627.2373719802753 80.55652873622026 L 139.33494854347975 577.6232630390582" stroke-opacity="1" stroke-linecap="round" stroke-linejoin="round" stroke-miterlimit="10" stroke-width="6.5"/><path fill="none" stroke="rgb(51,0,0)" paint-order="fill stroke markers" d=" M 730.3934677792518 164.60709942613934 L 342.1342830211024 742.8621630416028" stroke-opacity="1" stroke-linecap="round" stroke-linejoin="round" stroke-miterlimit="10" stroke-width="6.5"/><path fill="none" stroke="rgb(51,0,0)" paint-order="fill stroke markers" d=" M 730.3934677792518 164.60709942613934 L 95.87679195959294 451.85734094519216" stroke-opacity="1" stroke-linecap="round" stroke-linejoin="round" stroke-miterlimit="10" stroke-width="6.5"/><path fill="none" stroke="rgb(51,0,0)" paint-order="fill stroke markers" d=" M 796.2210942055681 280.2462023838649 L 225.29036394581317 679.1975959032347" stroke-opacity="1" stroke-linecap="round" stroke-linejoin="round" stroke-miterlimit="10" stroke-width="6.5"/><path fill="none" stroke="rgb(51,0,0)" paint-order="fill stroke markers" d=" M 796.2210942055681 280.2462023838649 L 100.78515905076372 318.8852142934502" stroke-opacity="1" stroke-linecap="round" stroke-linejoin="round" stroke-miterlimit="10" stroke-width="6.5"/><path fill="none" stroke="rgb(51,0,0)" paint-order="fill stroke markers" d=" M 815.8298655468751 411.85613597656254 L 139.33494854347975 577.6232630390582" stroke-opacity="1" stroke-linecap="round" stroke-linejoin="round" stroke-miterlimit="10" stroke-width="6.5"/><path fill="none" stroke="rgb(51,0,0)" paint-order="fill stroke markers" d=" M 815.8298655468751 411.85613597656254 L 153.39714764312913 196.66550561212915" stroke-opacity="1" stroke-linecap="round" stroke-linejoin="round" stroke-miterlimit="10" stroke-width="6.5"/><path fill="none" stroke="rgb(51,0,0)" paint-order="fill stroke markers" d=" M 786.5715085775785 541.6622493967168 L 95.87679195959294 451.85734094519216" stroke-opacity="1" stroke-linecap="round" stroke-linejoin="round" stroke-miterlimit="10" stroke-width="6.5"/><path fill="none" stroke="rgb(51,0,0)" paint-order="fill stroke markers" d=" M 786.5715085775785 541.6622493967168 L 246.6072171441976 101.70466380143344" stroke-opacity="1" stroke-linecap="round" stroke-linejoin="round" stroke-miterlimit="10" stroke-width="6.5"/><path fill="none" stroke="rgb(51,0,0)" paint-order="fill stroke markers" d=" M 712.3975265325325 652.1335077464399 L 100.78515905076372 318.8852142934502" stroke-opacity="1" stroke-linecap="round" stroke-linejoin="round" stroke-miterlimit="10" stroke-width="6.5"/><path fill="none" stroke="rgb(51,0,0)" paint-order="fill stroke markers" d=" M 712.3975265325325 652.1335077464399 L 367.82683117301946 46.827676744087626" stroke-opacity="1" stroke-linecap="round" stroke-linejoin="round" stroke-miterlimit="10" stroke-width="6.5"/><path fill="none" stroke="rgb(51,0,0)" paint-order="fill stroke markers" d=" M 603.3255266991495 728.3501554432191 L 153.39714764312913 196.66550561212915" stroke-opacity="1" stroke-linecap="round" stroke-linejoin="round" stroke-miterlimit="10" stroke-width="6.5"/><path fill="none" stroke="rgb(51,0,0)" paint-order="fill stroke markers" d=" M 474.08628704373314 760.0187118845871 L 246.6072171441976 101.70466380143344" stroke-opacity="1" stroke-linecap="round" stroke-linejoin="round" stroke-miterlimit="10" stroke-width="6.5"/><path fill="none" stroke="rgb(51,0,0)" paint-order="fill stroke markers" d=" M 342.1342830211024 742.8621630416028 L 367.82683117301946 46.827676744087626" stroke-opacity="1" stroke-linecap="round" stroke-linejoin="round" stroke-miterlimit="10" stroke-width="6.5"/><path fill="none" stroke="rgb(255,255,255)" paint-order="fill stroke markers" d=" M -0.9999999999999858 798 L 909 798" stroke-opacity="1" stroke-linecap="round" stroke-linejoin="round" stroke-miterlimit="10"/><path fill="none" stroke="rgb(255,255,255)" paint-order="fill stroke markers" d=" M 909 798 L 909 -1.0000000000000568" stroke-opacity="1" stroke-linecap="round" stroke-linejoin="round" stroke-miterlimit="10"/><path fill="none" stroke="rgb(255,255,255)" paint-order="fill stroke markers" d=" M 909 -1.0000000000000568 L -0.9999999999999858 -1.0000000000000568" stroke-opacity="1" stroke-linecap="round" stroke-linejoin="round" stroke-miterlimit="10"/><path fill="none" stroke="rgb(255,255,255)" paint-order="fill stroke markers" d=" M -0.9999999999999858 -1.0000000000000568 L -0.9999999999999858 798" stroke-opacity="1" stroke-linecap="round" stroke-linejoin="round" stroke-miterlimit="10"/><path fill="rgb(255,0,0)" stroke="none" paint-order="stroke fill markers" d=" M 821.8298655468751 411.85613597656254 C 821.8298655468751 415.1698444755473 819.1435740458599 417.85613597656254 815.8298655468751 417.85613597656254 C 812.5161570478904 417.85613597656254 809.8298655468751 415.1698444755473 809.8298655468751 411.85613597656254 C 809.8298655468751 408.5424274775778 812.5161570478904 405.85613597656254 815.8298655468751 405.85613597656254 C 819.1435740458599 405.85613597656254 821.8298655468751 408.5424274775778 821.8298655468751 411.85613597656254 Z" fill-opacity="1"/><path fill="none" stroke="rgb(0,0,0)" paint-order="fill stroke markers" d=" M 821.8298655468751 411.85613597656254 C 821.8298655468751 415.1698444755473 819.1435740458599 417.85613597656254 815.8298655468751 417.85613597656254 C 812.5161570478904 417.85613597656254 809.8298655468751 415.1698444755473 809.8298655468751 411.85613597656254 C 809.8298655468751 408.5424274775778 812.5161570478904 405.85613597656254 815.8298655468751 405.85613597656254 C 819.1435740458599 405.85613597656254 821.8298655468751 408.5424274775778 821.8298655468751 411.85613597656254 Z" stroke-opacity="1" stroke-linecap="round" stroke-linejoin="round" stroke-miterlimit="10"/><path fill="rgb(255,0,0)" stroke="none" paint-order="stroke fill markers" d=" M 633.2373719802753 80.55652873622026 C 633.2373719802753 83.87023723520502 630.55108047926 86.55652873622026 627.2373719802753 86.55652873622026 C 623.9236634812905 86.55652873622026 621.2373719802753 83.87023723520502 621.2373719802753 80.55652873622026 C 621.2373719802753 77.24282023723549 623.9236634812905 74.55652873622026 627.2373719802753 74.55652873622026 C 630.55108047926 74.55652873622026 633.2373719802753 77.24282023723549 633.2373719802753 80.55652873622026 Z" fill-opacity="1"/><path fill="none" stroke="rgb(0,0,0)" paint-order="fill stroke markers" d=" M 633.2373719802753 80.55652873622026 C 633.2373719802753 83.87023723520502 630.55108047926 86.55652873622026 627.2373719802753 86.55652873622026 C 623.9236634812905 86.55652873622026 621.2373719802753 83.87023723520502 621.2373719802753 80.55652873622026 C 621.2373719802753 77.24282023723549 623.9236634812905 74.55652873622026 627.2373719802753 74.55652873622026 C 630.55108047926 74.55652873622026 633.2373719802753 77.24282023723549 633.2373719802753 80.55652873622026 Z" stroke-opacity="1" stroke-linecap="round" stroke-linejoin="round" stroke-miterlimit="10"/><path fill="rgb(255,0,0)" stroke="none" paint-order="stroke fill markers" d=" M 252.6072171441976 101.70466380143344 C 252.6072171441976 105.0183723004182 249.92092564318236 107.70466380143344 246.6072171441976 107.70466380143344 C 243.29350864521282 107.70466380143344 240.6072171441976 105.0183723004182 240.6072171441976 101.70466380143344 C 240.6072171441976 98.39095530244867 243.29350864521282 95.70466380143344 246.6072171441976 95.70466380143344 C 249.92092564318236 95.70466380143344 252.6072171441976 98.39095530244867 252.6072171441976 101.70466380143344 Z" fill-opacity="1"/><path fill="none" stroke="rgb(0,0,0)" paint-order="fill stroke markers" d=" M 252.6072171441976 101.70466380143344 C 252.6072171441976 105.0183723004182 249.92092564318236 107.70466380143344 246.6072171441976 107.70466380143344 C 243.29350864521282 107.70466380143344 240.6072171441976 105.0183723004182 240.6072171441976 101.70466380143344 C 240.6072171441976 98.39095530244867 243.29350864521282 95.70466380143344 246.6072171441976 95.70466380143344 C 249.92092564318236 95.70466380143344 252.6072171441976 98.39095530244867 252.6072171441976 101.70466380143344 Z" stroke-opacity="1" stroke-linecap="round" stroke-linejoin="round" stroke-miterlimit="10"/><path fill="rgb(255,0,0)" stroke="none" paint-order="stroke fill markers" d=" M 101.87679195959294 451.85734094519216 C 101.87679195959294 455.1710494441769 99.1905004585777 457.85734094519216 95.87679195959294 457.85734094519216 C 92.56308346060817 457.85734094519216 89.87679195959294 455.1710494441769 89.87679195959294 451.85734094519216 C 89.87679195959294 448.5436324462074 92.56308346060817 445.85734094519216 95.87679195959294 445.85734094519216 C 99.1905004585777 445.85734094519216 101.87679195959294 448.5436324462074 101.87679195959294 451.85734094519216 Z" fill-opacity="1"/><path fill="none" stroke="rgb(0,0,0)" paint-order="fill stroke markers" d=" M 101.87679195959294 451.85734094519216 C 101.87679195959294 455.1710494441769 99.1905004585777 457.85734094519216 95.87679195959294 457.85734094519216 C 92.56308346060817 457.85734094519216 89.87679195959294 455.1710494441769 89.87679195959294 451.85734094519216 C 89.87679195959294 448.5436324462074 92.56308346060817 445.85734094519216 95.87679195959294 445.85734094519216 C 99.1905004585777 445.85734094519216 101.87679195959294 448.5436324462074 101.87679195959294 451.85734094519216 Z" stroke-opacity="1" stroke-linecap="round" stroke-linejoin="round" stroke-miterlimit="10"/><path fill="rgb(255,0,0)" stroke="none" paint-order="stroke fill markers" d=" M 348.1342830211024 742.8621630416028 C 348.1342830211024 746.1758715405875 345.44799152008716 748.8621630416028 342.1342830211024 748.8621630416028 C 338.8205745221177 748.8621630416028 336.1342830211024 746.1758715405875 336.1342830211024 742.8621630416028 C 336.1342830211024 739.5484545426181 338.8205745221177 736.8621630416028 342.1342830211024 736.8621630416028 C 345.44799152008716 736.8621630416028 348.1342830211024 739.5484545426181 348.1342830211024 742.8621630416028 Z" fill-opacity="1"/><path fill="none" stroke="rgb(0,0,0)" paint-order="fill stroke markers" d=" M 348.1342830211024 742.8621630416028 C 348.1342830211024 746.1758715405875 345.44799152008716 748.8621630416028 342.1342830211024 748.8621630416028 C 338.8205745221177 748.8621630416028 336.1342830211024 746.1758715405875 336.1342830211024 742.8621630416028 C 336.1342830211024 739.5484545426181 338.8205745221177 736.8621630416028 342.1342830211024 736.8621630416028 C 345.44799152008716 736.8621630416028 348.1342830211024 739.5484545426181 348.1342830211024 742.8621630416028 Z" stroke-opacity="1" stroke-linecap="round" stroke-linejoin="round" stroke-miterlimit="10"/><path fill="rgb(255,0,0)" stroke="none" paint-order="stroke fill markers" d=" M 718.3975265325325 652.1335077464399 C 718.3975265325325 655.4472162454247 715.7112350315173 658.1335077464399 712.3975265325325 658.1335077464399 C 709.0838180335478 658.1335077464399 706.3975265325325 655.4472162454247 706.3975265325325 652.1335077464399 C 706.3975265325325 648.8197992474552 709.0838180335478 646.1335077464399 712.3975265325325 646.1335077464399 C 715.7112350315173 646.1335077464399 718.3975265325325 648.8197992474552 718.3975265325325 652.1335077464399 Z" fill-opacity="1"/><path fill="none" stroke="rgb(0,0,0)" paint-order="fill stroke markers" d=" M 718.3975265325325 652.1335077464399 C 718.3975265325325 655.4472162454247 715.7112350315173 658.1335077464399 712.3975265325325 658.1335077464399 C 709.0838180335478 658.1335077464399 706.3975265325325 655.4472162454247 706.3975265325325 652.1335077464399 C 706.3975265325325 648.8197992474552 709.0838180335478 646.1335077464399 712.3975265325325 646.1335077464399 C 715.7112350315173 646.1335077464399 718.3975265325325 648.8197992474552 718.3975265325325 652.1335077464399 Z" stroke-opacity="1" stroke-linecap="round" stroke-linejoin="round" stroke-miterlimit="10"/><path fill="rgb(255,0,0)" stroke="none" paint-order="stroke fill markers" d=" M 802.2210942055681 280.2462023838649 C 802.2210942055681 283.55991088284964 799.5348027045528 286.2462023838649 796.2210942055681 286.2462023838649 C 792.9073857065833 286.2462023838649 790.2210942055681 283.55991088284964 790.2210942055681 280.2462023838649 C 790.2210942055681 276.93249388488016 792.9073857065833 274.2462023838649 796.2210942055681 274.2462023838649 C 799.5348027045528 274.2462023838649 802.2210942055681 276.93249388488016 802.2210942055681 280.2462023838649 Z" fill-opacity="1"/><path fill="none" stroke="rgb(0,0,0)" paint-order="fill stroke markers" d=" M 802.2210942055681 280.2462023838649 C 802.2210942055681 283.55991088284964 799.5348027045528 286.2462023838649 796.2210942055681 286.2462023838649 C 792.9073857065833 286.2462023838649 790.2210942055681 283.55991088284964 790.2210942055681 280.2462023838649 C 790.2210942055681 276.93249388488016 792.9073857065833 274.2462023838649 796.2210942055681 274.2462023838649 C 799.5348027045528 274.2462023838649 802.2210942055681 276.93249388488016 802.2210942055681 280.2462023838649 Z" stroke-opacity="1" stroke-linecap="round" stroke-linejoin="round" stroke-miterlimit="10"/><path fill="rgb(255,0,0)" stroke="none" paint-order="stroke fill markers" d=" M 506.68460915394246 39.44598562606518 C 506.68460915394246 42.75969412504994 503.9983176529272 45.44598562606518 500.68460915394246 45.44598562606518 C 497.3709006549577 45.44598562606518 494.68460915394246 42.75969412504994 494.68460915394246 39.44598562606518 C 494.68460915394246 36.13227712708042 497.3709006549577 33.44598562606518 500.68460915394246 33.44598562606518 C 503.9983176529272 33.44598562606518 506.68460915394246 36.13227712708042 506.68460915394246 39.44598562606518 Z" fill-opacity="1"/><path fill="none" stroke="rgb(0,0,0)" paint-order="fill stroke markers" d=" M 506.68460915394246 39.44598562606518 C 506.68460915394246 42.75969412504994 503.9983176529272 45.44598562606518 500.68460915394246 45.44598562606518 C 497.3709006549577 45.44598562606518 494.68460915394246 42.75969412504994 494.68460915394246 39.44598562606518 C 494.68460915394246 36.13227712708042 497.3709006549577 33.44598562606518 500.68460915394246 33.44598562606518 C 503.9983176529272 33.44598562606518 506.68460915394246 36.13227712708042 506.68460915394246 39.44598562606518 Z" stroke-opacity="1" stroke-linecap="round" stroke-linejoin="round" stroke-miterlimit="10"/><path fill="rgb(255,0,0)" stroke="none" paint-order="stroke fill markers" d=" M 159.39714764312913 196.66550561212915 C 159.39714764312913 199.97921411111392 156.7108561421139 202.66550561212915 153.39714764312913 202.66550561212915 C 150.08343914414436 202.66550561212915 147.39714764312913 199.97921411111392 147.39714764312913 196.66550561212915 C 147.39714764312913 193.35179711314439 150.08343914414436 190.66550561212915 153.39714764312913 190.66550561212915 C 156.7108561421139 190.66550561212915 159.39714764312913 193.35179711314439 159.39714764312913 196.66550561212915 Z" fill-opacity="1"/><path fill="none" stroke="rgb(0,0,0)" paint-order="fill stroke markers" d=" M 159.39714764312913 196.66550561212915 C 159.39714764312913 199.97921411111392 156.7108561421139 202.66550561212915 153.39714764312913 202.66550561212915 C 150.08343914414436 202.66550561212915 147.39714764312913 199.97921411111392 147.39714764312913 196.66550561212915 C 147.39714764312913 193.35179711314439 150.08343914414436 190.66550561212915 153.39714764312913 190.66550561212915 C 156.7108561421139 190.66550561212915 159.39714764312913 193.35179711314439 159.39714764312913 196.66550561212915 Z" stroke-opacity="1" stroke-linecap="round" stroke-linejoin="round" stroke-miterlimit="10"/><path fill="rgb(255,0,0)" stroke="none" paint-order="stroke fill markers" d=" M 145.33494854347975 577.6232630390582 C 145.33494854347975 580.9369715380429 142.64865704246452 583.6232630390582 139.33494854347975 583.6232630390582 C 136.021240044495 583.6232630390582 133.33494854347975 580.9369715380429 133.33494854347975 577.6232630390582 C 133.33494854347975 574.3095545400735 136.021240044495 571.6232630390582 139.33494854347975 571.6232630390582 C 142.64865704246452 571.6232630390582 145.33494854347975 574.3095545400735 145.33494854347975 577.6232630390582 Z" fill-opacity="1"/><path fill="none" stroke="rgb(0,0,0)" paint-order="fill stroke markers" d=" M 145.33494854347975 577.6232630390582 C 145.33494854347975 580.9369715380429 142.64865704246452 583.6232630390582 139.33494854347975 583.6232630390582 C 136.021240044495 583.6232630390582 133.33494854347975 580.9369715380429 133.33494854347975 577.6232630390582 C 133.33494854347975 574.3095545400735 136.021240044495 571.6232630390582 139.33494854347975 571.6232630390582 C 142.64865704246452 571.6232630390582 145.33494854347975 574.3095545400735 145.33494854347975 577.6232630390582 Z" stroke-opacity="1" stroke-linecap="round" stroke-linejoin="round" stroke-miterlimit="10"/><path fill="rgb(255,0,0)" stroke="none" paint-order="stroke fill markers" d=" M 480.08628704373314 760.0187118845871 C 480.08628704373314 763.3324203835718 477.3999955427179 766.0187118845871 474.08628704373314 766.0187118845871 C 470.7725785447484 766.0187118845871 468.08628704373314 763.3324203835718 468.08628704373314 760.0187118845871 C 468.08628704373314 756.7050033856024 470.7725785447484 754.0187118845871 474.08628704373314 754.0187118845871 C 477.3999955427179 754.0187118845871 480.08628704373314 756.7050033856024 480.08628704373314 760.0187118845871 Z" fill-opacity="1"/><path fill="none" stroke="rgb(0,0,0)" paint-order="fill stroke markers" d=" M 480.08628704373314 760.0187118845871 C 480.08628704373314 763.3324203835718 477.3999955427179 766.0187118845871 474.08628704373314 766.0187118845871 C 470.7725785447484 766.0187118845871 468.08628704373314 763.3324203835718 468.08628704373314 760.0187118845871 C 468.08628704373314 756.7050033856024 470.7725785447484 754.0187118845871 474.08628704373314 754.0187118845871 C 477.3999955427179 754.0187118845871 480.08628704373314 756.7050033856024 480.08628704373314 760.0187118845871 Z" stroke-opacity="1" stroke-linecap="round" stroke-linejoin="round" stroke-miterlimit="10"/><path fill="rgb(255,0,0)" stroke="none" paint-order="stroke fill markers" d=" M 792.5715085775785 541.6622493967168 C 792.5715085775785 544.9759578957015 789.8852170765632 547.6622493967168 786.5715085775785 547.6622493967168 C 783.2578000785937 547.6622493967168 780.5715085775785 544.9759578957015 780.5715085775785 541.6622493967168 C 780.5715085775785 538.348540897732 783.2578000785937 535.6622493967168 786.5715085775785 535.6622493967168 C 789.8852170765632 535.6622493967168 792.5715085775785 538.348540897732 792.5715085775785 541.6622493967168 Z" fill-opacity="1"/><path fill="none" stroke="rgb(0,0,0)" paint-order="fill stroke markers" d=" M 792.5715085775785 541.6622493967168 C 792.5715085775785 544.9759578957015 789.8852170765632 547.6622493967168 786.5715085775785 547.6622493967168 C 783.2578000785937 547.6622493967168 780.5715085775785 544.9759578957015 780.5715085775785 541.6622493967168 C 780.5715085775785 538.348540897732 783.2578000785937 535.6622493967168 786.5715085775785 535.6622493967168 C 789.8852170765632 535.6622493967168 792.5715085775785 538.348540897732 792.5715085775785 541.6622493967168 Z" stroke-opacity="1" stroke-linecap="round" stroke-linejoin="round" stroke-miterlimit="10"/><path fill="rgb(255,0,0)" stroke="none" paint-order="stroke fill markers" d=" M 736.3934677792518 164.60709942613934 C 736.3934677792518 167.9208079251241 733.7071762782365 170.60709942613934 730.3934677792518 170.60709942613934 C 727.079759280267 170.60709942613934 724.3934677792518 167.9208079251241 724.3934677792518 164.60709942613934 C 724.3934677792518 161.29339092715458 727.079759280267 158.60709942613934 730.3934677792518 158.60709942613934 C 733.7071762782365 158.60709942613934 736.3934677792518 161.29339092715458 736.3934677792518 164.60709942613934 Z" fill-opacity="1"/><path fill="none" stroke="rgb(0,0,0)" paint-order="fill stroke markers" d=" M 736.3934677792518 164.60709942613934 C 736.3934677792518 167.9208079251241 733.7071762782365 170.60709942613934 730.3934677792518 170.60709942613934 C 727.079759280267 170.60709942613934 724.3934677792518 167.9208079251241 724.3934677792518 164.60709942613934 C 724.3934677792518 161.29339092715458 727.079759280267 158.60709942613934 730.3934677792518 158.60709942613934 C 733.7071762782365 158.60709942613934 736.3934677792518 161.29339092715458 736.3934677792518 164.60709942613934 Z" stroke-opacity="1" stroke-linecap="round" stroke-linejoin="round" stroke-miterlimit="10"/><path fill="rgb(255,0,0)" stroke="none" paint-order="stroke fill markers" d=" M 373.82683117301946 46.827676744087626 C 373.82683117301946 50.141385243072385 371.1405396720042 52.827676744087626 367.82683117301946 52.827676744087626 C 364.5131226740347 52.827676744087626 361.82683117301946 50.141385243072385 361.82683117301946 46.827676744087626 C 361.82683117301946 43.513968245102866 364.5131226740347 40.827676744087626 367.82683117301946 40.827676744087626 C 371.1405396720042 40.827676744087626 373.82683117301946 43.513968245102866 373.82683117301946 46.827676744087626 Z" fill-opacity="1"/><path fill="none" stroke="rgb(0,0,0)" paint-order="fill stroke markers" d=" M 373.82683117301946 46.827676744087626 C 373.82683117301946 50.141385243072385 371.1405396720042 52.827676744087626 367.82683117301946 52.827676744087626 C 364.5131226740347 52.827676744087626 361.82683117301946 50.141385243072385 361.82683117301946 46.827676744087626 C 361.82683117301946 43.513968245102866 364.5131226740347 40.827676744087626 367.82683117301946 40.827676744087626 C 371.1405396720042 40.827676744087626 373.82683117301946 43.513968245102866 373.82683117301946 46.827676744087626 Z" stroke-opacity="1" stroke-linecap="round" stroke-linejoin="round" stroke-miterlimit="10"/><path fill="rgb(255,0,0)" stroke="none" paint-order="stroke fill markers" d=" M 106.78515905076372 318.8852142934502 C 106.78515905076372 322.1989227924349 104.09886754974849 324.8852142934502 100.78515905076372 324.8852142934502 C 97.47145055177896 324.8852142934502 94.78515905076372 322.1989227924349 94.78515905076372 318.8852142934502 C 94.78515905076372 315.57150579446545 97.47145055177896 312.8852142934502 100.78515905076372 312.8852142934502 C 104.09886754974849 312.8852142934502 106.78515905076372 315.57150579446545 106.78515905076372 318.8852142934502 Z" fill-opacity="1"/><path fill="none" stroke="rgb(0,0,0)" paint-order="fill stroke markers" d=" M 106.78515905076372 318.8852142934502 C 106.78515905076372 322.1989227924349 104.09886754974849 324.8852142934502 100.78515905076372 324.8852142934502 C 97.47145055177896 324.8852142934502 94.78515905076372 322.1989227924349 94.78515905076372 318.8852142934502 C 94.78515905076372 315.57150579446545 97.47145055177896 312.8852142934502 100.78515905076372 312.8852142934502 C 104.09886754974849 312.8852142934502 106.78515905076372 315.57150579446545 106.78515905076372 318.8852142934502 Z" stroke-opacity="1" stroke-linecap="round" stroke-linejoin="round" stroke-miterlimit="10"/><path fill="rgb(255,0,0)" stroke="none" paint-order="stroke fill markers" d=" M 231.29036394581317 679.1975959032347 C 231.29036394581317 682.5113044022195 228.60407244479794 685.1975959032347 225.29036394581317 685.1975959032347 C 221.9766554468284 685.1975959032347 219.29036394581317 682.5113044022195 219.29036394581317 679.1975959032347 C 219.29036394581317 675.88388740425 221.9766554468284 673.1975959032347 225.29036394581317 673.1975959032347 C 228.60407244479794 673.1975959032347 231.29036394581317 675.88388740425 231.29036394581317 679.1975959032347 Z" fill-opacity="1"/><path fill="none" stroke="rgb(0,0,0)" paint-order="fill stroke markers" d=" M 231.29036394581317 679.1975959032347 C 231.29036394581317 682.5113044022195 228.60407244479794 685.1975959032347 225.29036394581317 685.1975959032347 C 221.9766554468284 685.1975959032347 219.29036394581317 682.5113044022195 219.29036394581317 679.1975959032347 C 219.29036394581317 675.88388740425 221.9766554468284 673.1975959032347 225.29036394581317 673.1975959032347 C 228.60407244479794 673.1975959032347 231.29036394581317 675.88388740425 231.29036394581317 679.1975959032347 Z" stroke-opacity="1" stroke-linecap="round" stroke-linejoin="round" stroke-miterlimit="10"/><path fill="rgb(255,0,0)" stroke="none" paint-order="stroke fill markers" d=" M 609.3255266991495 728.3501554432191 C 609.3255266991495 731.6638639422039 606.6392351981342 734.3501554432191 603.3255266991495 734.3501554432191 C 600.0118182001647 734.3501554432191 597.3255266991495 731.6638639422039 597.3255266991495 728.3501554432191 C 597.3255266991495 725.0364469442344 600.0118182001647 722.3501554432191 603.3255266991495 722.3501554432191 C 606.6392351981342 722.3501554432191 609.3255266991495 725.0364469442344 609.3255266991495 728.3501554432191 Z" fill-opacity="1"/><path fill="none" stroke="rgb(0,0,0)" paint-order="fill stroke markers" d=" M 609.3255266991495 728.3501554432191 C 609.3255266991495 731.6638639422039 606.6392351981342 734.3501554432191 603.3255266991495 734.3501554432191 C 600.0118182001647 734.3501554432191 597.3255266991495 731.6638639422039 597.3255266991495 728.3501554432191 C 597.3255266991495 725.0364469442344 600.0118182001647 722.3501554432191 603.3255266991495 722.3501554432191 C 606.6392351981342 722.3501554432191 609.3255266991495 725.0364469442344 609.3255266991495 728.3501554432191 Z" stroke-opacity="1" stroke-linecap="round" stroke-linejoin="round" stroke-miterlimit="10"/></g></g></svg>